<?xml version="1.0" encoding="UTF-8" standalone="no"?>
<!-- Created with Inkscape (http://www.inkscape.org/) -->

<svg
   width="115"
   height="115"
   viewBox="0 0 30.427083 30.427084"
   version="1.1"
   id="svg1"
   inkscape:version="1.4.2 (2aeb623e1d, 2025-05-12)"
   sodipodi:docname="base.svg"
   xmlns:inkscape="http://www.inkscape.org/namespaces/inkscape"
   xmlns:sodipodi="http://sodipodi.sourceforge.net/DTD/sodipodi-0.dtd"
   xmlns="http://www.w3.org/2000/svg"
   xmlns:svg="http://www.w3.org/2000/svg">
  <sodipodi:namedview
     id="namedview1"
     pagecolor="#ffffff"
     bordercolor="#000000"
     borderopacity="0.25"
     inkscape:showpageshadow="2"
     inkscape:pageopacity="0.0"
     inkscape:pagecheckerboard="0"
     inkscape:deskcolor="#d1d1d1"
     inkscape:document-units="mm"
     inkscape:zoom="2.4614795"
     inkscape:cx="115.58089"
     inkscape:cy="118.42471"
     inkscape:window-width="1854"
     inkscape:window-height="1131"
     inkscape:window-x="0"
     inkscape:window-y="0"
     inkscape:window-maximized="1"
     inkscape:current-layer="layer1" />
  <defs
     id="defs1" />
  <g
     inkscape:label="Layer 1"
     inkscape:groupmode="layer"
     id="layer1">
    <g
       id="g886"
       transform="matrix(0.26532321,0,0,0.29601498,-18.458178,-23.30731)"
       inkscape:export-filename="../4376e5e9/base.svg"
       inkscape:export-xdpi="96"
       inkscape:export-ydpi="96">
		<g
   id="g867">
			<g
   id="g724">
				<g
   id="g723">
					<g
   id="g714">
						<path
   style="fill:#ffffff"
   d="m 89.437,153.234 h -5.9 c 0,0 -5.502,8.112 -5.203,20.383 0,0 3.308,1.37 8.153,1.311 4.844,0.059 8.152,-1.311 8.152,-1.311 0.298,-12.271 -5.202,-20.383 -5.202,-20.383 z"
   id="path713" />

						<path
   style="fill:#9b9ea0"
   d="m 86.792,175.18 c 0,0 0,0 0,0 l -0.309,-0.003 -0.302,0.003 c -4.673,0 -7.812,-1.278 -7.943,-1.333 -0.091,-0.036 -0.151,-0.125 -0.154,-0.224 -0.297,-12.209 5.19,-20.447 5.245,-20.528 0.047,-0.07 0.125,-0.111 0.208,-0.111 h 5.9 c 0.082,0 0.159,0.041 0.207,0.111 0.055,0.081 5.542,8.319 5.246,20.528 -0.003,0.099 -0.064,0.187 -0.155,0.224 -0.131,0.055 -3.269,1.333 -7.943,1.333 z m -0.309,-0.503 0.308,0.002 c 4.005,0 6.922,-0.984 7.602,-1.236 0.223,-11.192 -4.455,-18.953 -5.093,-19.958 h -5.628 c -0.638,1.003 -5.316,8.766 -5.092,19.958 0.68,0.252 3.597,1.236 7.6,1.236 z"
   id="path714" />

					</g>

					<g
   id="g722">
						<path
   style="opacity:0.9;fill:#b3b5b8"
   d="m 92.166,158.871 c -1.343,-3.589 -2.729,-5.637 -2.729,-5.637 h -5.9 c 0,0 -1.42,2.099 -2.778,5.767 2.508,0.463 6.429,0.777 11.407,-0.13 z"
   id="path715" />

						<g
   id="g717">
							<path
   style="fill:#808285"
   d="m 93.405,162.82 c -0.081,-0.319 -0.164,-0.631 -0.251,-0.934 -6.169,1.29 -10.835,0.702 -13.369,0.124 -0.087,0.308 -0.17,0.626 -0.253,0.948 1.467,0.346 3.603,0.688 6.325,0.688 2.164,0 4.7,-0.224 7.548,-0.826 z"
   id="path716" />

							<path
   style="fill:#4f5254"
   d="m 85.857,163.896 c -2.275,0 -4.423,-0.233 -6.382,-0.693 -0.065,-0.016 -0.122,-0.057 -0.156,-0.114 -0.035,-0.057 -0.045,-0.127 -0.029,-0.192 0.083,-0.325 0.167,-0.647 0.255,-0.956 0.036,-0.128 0.169,-0.206 0.297,-0.176 1.284,0.293 3.38,0.644 6.076,0.644 2.331,0 4.749,-0.258 7.186,-0.767 0.127,-0.029 0.256,0.049 0.292,0.174 0.087,0.306 0.17,0.621 0.254,0.942 0.017,0.065 0.005,0.136 -0.031,0.193 -0.036,0.059 -0.093,0.098 -0.16,0.114 -2.608,0.55 -5.165,0.831 -7.602,0.831 z m -6.018,-1.124 c 3.867,0.862 8.486,0.834 13.259,-0.144 -0.041,-0.151 -0.08,-0.301 -0.121,-0.45 -2.393,0.487 -4.766,0.732 -7.059,0.732 -2.586,0 -4.633,-0.317 -5.954,-0.604 -0.044,0.152 -0.084,0.309 -0.125,0.466 z"
   id="path717" />

						</g>

						<g
   id="g719">
							<path
   style="fill:#808285"
   d="m 79.065,165.038 c -0.063,0.319 -0.121,0.639 -0.177,0.967 1.448,0.39 3.815,0.85 6.968,0.85 2.33,0 5.087,-0.255 8.207,-0.97 -0.057,-0.322 -0.116,-0.64 -0.178,-0.951 -7.184,1.644 -12.437,0.742 -14.82,0.104 z"
   id="path718" />

							<path
   style="fill:#4f5254"
   d="m 85.857,167.105 c -3.176,0 -5.577,-0.466 -7.034,-0.858 -0.124,-0.033 -0.203,-0.157 -0.182,-0.284 0.056,-0.33 0.116,-0.653 0.178,-0.973 0.014,-0.068 0.055,-0.128 0.113,-0.165 0.06,-0.035 0.131,-0.046 0.198,-0.029 1.395,0.374 3.704,0.82 6.782,0.82 2.567,0 5.23,-0.312 7.917,-0.929 0.066,-0.014 0.136,-0.001 0.192,0.035 0.056,0.036 0.096,0.095 0.109,0.16 0.063,0.315 0.122,0.634 0.179,0.959 0.023,0.132 -0.061,0.257 -0.191,0.287 -2.825,0.647 -5.606,0.977 -8.261,0.977 z m -6.683,-1.284 c 1.444,0.371 3.718,0.783 6.683,0.783 2.544,0 5.208,-0.306 7.919,-0.911 -0.027,-0.154 -0.056,-0.308 -0.085,-0.46 -2.638,0.587 -5.253,0.885 -7.777,0.885 -2.949,0 -5.209,-0.404 -6.652,-0.769 -0.03,0.155 -0.061,0.313 -0.088,0.472 z"
   id="path719" />

						</g>

						<g
   id="g721">
							<path
   style="fill:#808285"
   d="m 92.497,159.794 c -0.109,-0.317 -0.22,-0.628 -0.331,-0.923 -4.978,0.907 -8.899,0.593 -11.407,0.13 -0.112,0.303 -0.223,0.617 -0.333,0.94 1.395,0.271 3.218,0.498 5.431,0.498 1.931,0 4.159,-0.179 6.64,-0.645 z"
   id="path720" />

							<path
   style="fill:#4f5254"
   d="m 85.857,160.689 c -1.917,0 -3.759,-0.17 -5.479,-0.503 -0.07,-0.014 -0.132,-0.057 -0.169,-0.12 -0.036,-0.063 -0.043,-0.138 -0.021,-0.208 0.112,-0.323 0.224,-0.64 0.336,-0.943 0.041,-0.116 0.162,-0.182 0.279,-0.16 3.423,0.631 7.357,0.59 11.319,-0.13 0.117,-0.024 0.237,0.044 0.279,0.157 0.112,0.299 0.224,0.61 0.333,0.93 0.024,0.068 0.016,0.144 -0.02,0.208 -0.037,0.062 -0.099,0.106 -0.17,0.12 -2.29,0.431 -4.54,0.649 -6.687,0.649 z m -5.101,-0.941 c 3.438,0.626 7.352,0.585 11.409,-0.147 -0.053,-0.151 -0.107,-0.3 -0.161,-0.446 -3.871,0.682 -7.71,0.721 -11.083,0.13 -0.054,0.152 -0.109,0.306 -0.165,0.463 z"
   id="path721" />

						</g>

					</g>

					<path
   style="opacity:0.9;fill:#b3b5b8"
   d="m 89.437,153.234 h -5.9 c 0,0 -5.502,8.112 -5.203,20.383 0,0 0.241,0.098 0.677,0.239 -0.167,-2.844 0.56,-5.751 1.026,-8.524 0.309,-1.833 1.229,-7.1 3.951,-6.908 3.013,0.212 2.317,13.596 2.406,16.504 0.031,-0.001 0.062,0 0.093,0 4.844,0.059 8.152,-1.311 8.152,-1.311 0.298,-12.271 -5.202,-20.383 -5.202,-20.383 z"
   id="path722" />

					<path
   style="opacity:0.9;fill:#b3b5b8"
   d="M 89.437,153.234 H 86.41 c 3.113,6.514 4.32,14.08 4.648,21.326 2.232,-0.387 3.581,-0.943 3.581,-0.943 0.298,-12.271 -5.202,-20.383 -5.202,-20.383 z"
   id="path723" />

				</g>

			</g>

			<g
   id="g735">
				<g
   id="g734">
					<g
   id="g725">
						<path
   style="fill:#ffffff"
   d="m 171.057,152.798 h -5.899 c 0,0 -5.501,8.112 -5.203,20.383 0,0 3.309,1.369 8.152,1.311 4.846,0.059 8.153,-1.311 8.153,-1.311 0.297,-12.271 -5.203,-20.383 -5.203,-20.383 z"
   id="path724" />

						<path
   style="fill:#9b9ea0"
   d="m 168.413,174.744 c 0,0 0,0 0,0 l -0.309,-0.003 -0.303,0.003 c -4.672,0 -7.811,-1.278 -7.942,-1.333 -0.092,-0.036 -0.153,-0.125 -0.154,-0.223 -0.297,-12.209 5.19,-20.448 5.246,-20.529 0.046,-0.07 0.124,-0.111 0.207,-0.111 h 5.899 c 0.083,0 0.16,0.041 0.208,0.111 0.055,0.081 5.542,8.319 5.245,20.529 -0.003,0.098 -0.064,0.187 -0.155,0.223 -0.13,0.055 -3.268,1.333 -7.942,1.333 z m -0.309,-0.503 0.308,0.002 c 4.004,0 6.921,-0.984 7.601,-1.237 0.223,-11.192 -4.455,-18.953 -5.092,-19.958 h -5.628 c -0.638,1.004 -5.316,8.766 -5.093,19.958 0.681,0.252 3.597,1.237 7.6,1.237 z"
   id="path725" />

					</g>

					<g
   id="g733">
						<path
   style="opacity:0.9;fill:#b3b5b8"
   d="m 173.787,158.435 c -1.344,-3.589 -2.73,-5.637 -2.73,-5.637 h -5.899 c 0,0 -1.42,2.099 -2.778,5.767 2.507,0.463 6.428,0.775 11.407,-0.13 z"
   id="path726" />

						<g
   id="g728">
							<path
   style="fill:#808285"
   d="m 175.025,162.384 c -0.081,-0.319 -0.163,-0.631 -0.251,-0.935 -6.17,1.292 -10.835,0.704 -13.368,0.124 -0.087,0.309 -0.171,0.628 -0.254,0.95 1.466,0.346 3.603,0.688 6.324,0.688 2.165,-0.001 4.702,-0.225 7.549,-0.827 z"
   id="path727" />

							<path
   style="fill:#4f5254"
   d="m 167.477,163.459 c -2.275,0 -4.422,-0.232 -6.381,-0.693 -0.066,-0.014 -0.122,-0.056 -0.157,-0.114 -0.035,-0.057 -0.044,-0.125 -0.028,-0.19 0.082,-0.327 0.167,-0.645 0.254,-0.956 0.037,-0.13 0.168,-0.208 0.296,-0.176 1.284,0.293 3.38,0.644 6.077,0.644 2.332,0 4.749,-0.258 7.185,-0.769 0.129,-0.028 0.256,0.051 0.293,0.176 0.087,0.306 0.17,0.622 0.252,0.942 0.017,0.065 0.006,0.136 -0.03,0.193 -0.036,0.059 -0.094,0.098 -0.161,0.114 -2.606,0.55 -5.163,0.829 -7.6,0.829 z m -6.017,-1.123 c 3.867,0.862 8.486,0.834 13.258,-0.144 -0.04,-0.152 -0.08,-0.301 -0.12,-0.45 -2.393,0.485 -4.767,0.732 -7.059,0.732 -2.586,0 -4.632,-0.317 -5.955,-0.606 -0.042,0.154 -0.084,0.31 -0.124,0.468 z"
   id="path728" />

						</g>

						<g
   id="g730">
							<path
   style="fill:#808285"
   d="m 160.686,164.602 c -0.062,0.319 -0.122,0.639 -0.178,0.967 1.448,0.39 3.815,0.85 6.969,0.85 2.33,0 5.088,-0.255 8.208,-0.97 -0.057,-0.322 -0.116,-0.64 -0.178,-0.951 -7.185,1.646 -12.438,0.742 -14.821,0.104 z"
   id="path729" />

							<path
   style="fill:#4f5254"
   d="m 167.477,166.669 c -3.174,0 -5.577,-0.468 -7.034,-0.858 -0.125,-0.033 -0.203,-0.157 -0.182,-0.284 0.056,-0.331 0.116,-0.655 0.178,-0.973 0.014,-0.068 0.055,-0.128 0.113,-0.165 0.06,-0.037 0.131,-0.046 0.197,-0.029 1.395,0.374 3.705,0.82 6.783,0.82 2.566,0 5.23,-0.312 7.917,-0.929 0.066,-0.014 0.135,-0.003 0.191,0.035 0.057,0.036 0.097,0.095 0.11,0.16 0.063,0.315 0.122,0.634 0.178,0.959 0.024,0.13 -0.06,0.257 -0.19,0.287 -2.825,0.647 -5.605,0.977 -8.261,0.977 z m -6.681,-1.284 c 1.443,0.37 3.717,0.783 6.682,0.783 2.545,0 5.209,-0.306 7.92,-0.912 -0.029,-0.154 -0.056,-0.307 -0.086,-0.46 -2.639,0.587 -5.253,0.885 -7.777,0.885 -2.949,0 -5.209,-0.404 -6.652,-0.769 -0.031,0.156 -0.06,0.314 -0.087,0.473 z"
   id="path730" />

						</g>

						<g
   id="g732">
							<path
   style="fill:#808285"
   d="m 174.118,159.358 c -0.11,-0.317 -0.22,-0.626 -0.331,-0.923 -4.979,0.905 -8.9,0.593 -11.407,0.13 -0.112,0.303 -0.223,0.616 -0.334,0.94 1.395,0.271 3.219,0.496 5.431,0.496 1.932,0 4.159,-0.177 6.641,-0.643 z"
   id="path731" />

							<path
   style="fill:#4f5254"
   d="m 167.477,160.252 c -1.917,0 -3.759,-0.168 -5.478,-0.501 -0.072,-0.014 -0.133,-0.059 -0.17,-0.12 -0.037,-0.063 -0.045,-0.138 -0.021,-0.208 0.112,-0.323 0.223,-0.64 0.335,-0.943 0.043,-0.114 0.163,-0.182 0.281,-0.16 3.422,0.631 7.355,0.59 11.317,-0.132 0.117,-0.022 0.237,0.044 0.278,0.16 0.113,0.298 0.223,0.609 0.334,0.929 0.024,0.068 0.017,0.144 -0.02,0.206 -0.037,0.064 -0.099,0.108 -0.17,0.122 -2.288,0.43 -4.539,0.647 -6.686,0.647 z m -5.099,-0.94 c 3.437,0.625 7.351,0.585 11.408,-0.148 -0.053,-0.151 -0.107,-0.3 -0.159,-0.447 -3.871,0.683 -7.711,0.725 -11.084,0.132 -0.056,0.152 -0.111,0.306 -0.165,0.463 z"
   id="path732" />

						</g>

					</g>

					<path
   style="opacity:0.9;fill:#b3b5b8"
   d="m 171.057,152.798 h -5.899 c 0,0 -5.501,8.112 -5.203,20.383 0,0 0.241,0.098 0.676,0.239 -0.166,-2.844 0.56,-5.751 1.026,-8.523 0.309,-1.833 1.23,-7.1 3.951,-6.908 3.012,0.212 2.316,13.595 2.406,16.504 0.031,-0.002 0.061,0 0.092,0 4.846,0.059 8.153,-1.311 8.153,-1.311 0.298,-12.272 -5.202,-20.384 -5.202,-20.384 z"
   id="path733" />

					<path
   style="opacity:0.9;fill:#b3b5b8"
   d="m 171.057,152.798 h -3.025 c 3.112,6.514 4.318,14.08 4.647,21.326 2.231,-0.387 3.581,-0.943 3.581,-0.943 0.297,-12.271 -5.203,-20.383 -5.203,-20.383 z"
   id="path734" />

				</g>

			</g>

			<g
   id="g736">
				<path
   style="fill:#808285"
   d="m 179.985,142.819 -100.48,-3.423 -9.23,4.688 2.473,17.16 c 0,4.269 24.407,7.729 54.513,7.729 30.107,0 53.578,-3.245 54.513,-7.729 l 2.576,-17.642 z"
   id="path735" />

				<path
   style="fill:#4f5254"
   d="m 127.262,169.224 c -26.919,0 -54.763,-2.985 -54.763,-7.98 l -2.471,-17.125 c -0.015,-0.104 0.039,-0.209 0.135,-0.258 l 9.23,-4.688 c 0.038,-0.019 0.08,-0.032 0.122,-0.027 l 100.48,3.423 4.401,0.788 c 0.133,0.025 0.222,0.149 0.204,0.282 l -2.577,17.642 c -0.96,4.608 -23.99,7.943 -54.761,7.943 z m -56.713,-24.997 2.448,16.981 c 0.002,1.905 5.892,3.855 15.754,5.253 10.285,1.46 23.962,2.262 38.511,2.262 30.043,0 53.372,-3.237 54.268,-7.53 l 2.539,-17.387 -4.127,-0.742 -100.381,-3.416 z"
   id="path736" />

			</g>

			<path
   style="fill:#4e5153"
   d="m 82.156,139.487 -2.65,-0.09 -9.23,4.688 2.473,17.16 c 0,1.695 3.847,3.261 10.367,4.533 -0.4,-8.755 -0.253,-17.55 -0.96,-26.291 z"
   id="path737" />

			<path
   style="fill:#4e5153"
   d="m 179.985,142.819 -10.636,-0.361 c -0.3,7.972 -0.734,15.938 -1.102,23.908 8.111,-1.335 13.107,-3.102 13.527,-5.122 l 2.576,-17.642 z"
   id="path738" />

			<g
   id="g739">
				<path
   style="fill:#67696c"
   d="m 179.985,143.103 -100.48,-3.423 -9.23,4.688 1.569,10.882 c 12.04,2.512 32.363,6.322 55.405,6.322 23.394,0 43.521,-3.752 55.441,-6.32 l 1.66,-11.366 z"
   id="path739" />

			</g>

			<g
   id="g741">
				<path
   style="fill:#ffffff"
   d="m 184.351,143.418 -13.804,-57.982 -9.013,-1.051 -34.223,0.877 -34.224,-0.877 -9.013,1.051 -13.804,57.981 c -0.063,0.157 -0.098,0.312 -0.098,0.469 0,4.47 25.559,8.096 57.089,8.096 31.529,0 57.089,-3.625 57.089,-8.096 0.001,-0.155 0.001,-0.468 0.001,-0.468 z"
   id="path740" />

				<path
   style="fill:#9b9ea0"
   d="m 127.262,152.232 c -15.261,0 -29.61,-0.843 -40.403,-2.373 -7.727,-1.095 -16.936,-3.021 -16.936,-5.973 0,-0.181 0.04,-0.369 0.116,-0.561 L 83.832,85.379 c 0.024,-0.103 0.109,-0.179 0.214,-0.19 l 9.013,-1.054 34.259,0.877 34.211,-0.878 9.048,1.056 c 0.104,0.011 0.19,0.087 0.215,0.19 l 13.804,57.981 c 0.005,0.019 0.005,0.04 0.005,0.059 v 0.467 c 0,2.952 -9.208,4.878 -16.936,5.973 -10.794,1.529 -25.142,2.372 -40.403,2.372 z M 84.277,85.666 70.514,143.476 c -0.064,0.168 -0.09,0.292 -0.09,0.41 0,1.964 6.17,4.012 16.505,5.477 10.772,1.528 25.095,2.368 40.333,2.368 15.237,0 29.562,-0.84 40.333,-2.368 10.336,-1.465 16.505,-3.513 16.505,-5.477 v -0.439 l -13.757,-57.781 -8.838,-1.034 -34.189,0.88 -34.236,-0.878 z"
   id="path741" />

			</g>

			<path
   style="opacity:0.3;fill:#9b9ea0"
   d="M 82.557,124.372 C 85.998,111.14 89.408,97.926 92.003,84.51 l -7.928,0.926 -13.805,57.981 c -0.063,0.157 -0.098,0.312 -0.098,0.469 0,1.383 2.44,2.681 6.741,3.819 1.803,-7.796 3.63,-15.588 5.644,-23.333 z"
   id="path742" />

			<path
   style="fill:#afb1b4"
   d="m 174.978,148.757 c -0.113,0 -0.216,-0.079 -0.243,-0.195 L 161.146,89.245 c -0.031,-0.133 0.053,-0.268 0.188,-0.298 0.134,-0.033 0.269,0.052 0.3,0.187 l 13.59,59.317 c 0.031,0.133 -0.053,0.27 -0.188,0.3 -0.02,0.005 -0.039,0.006 -0.058,0.006 z"
   id="path743" />

			<path
   style="fill:#afb1b4"
   d="m 130.735,138.751 c -7.412,0 -12.743,-0.233 -12.887,-0.24 -28.79,-0.827 -44.446,-7.732 -44.6,-7.802 -0.127,-0.057 -0.182,-0.206 -0.126,-0.331 0.057,-0.127 0.205,-0.184 0.331,-0.125 0.154,0.068 15.73,6.934 44.415,7.758 0.396,0.019 39.267,1.717 53.708,-4.179 0.128,-0.054 0.274,0.008 0.327,0.136 0.052,0.128 -0.01,0.274 -0.137,0.327 -9.212,3.761 -28.227,4.456 -41.031,4.456 z"
   id="path744" />

			<g
   style="opacity:0.5"
   id="g747">
				<path
   style="fill:none"
   d="m 83.95,85.959 0.125,-0.523 c -0.001,0 -0.095,0.192 -0.125,0.523 z"
   id="path745" />

				<path
   style="fill:#9b9ea0"
   d="m 170.547,85.436 -9.013,-1.051 -34.223,0.877 -34.224,-0.877 -9.013,1.051 -0.125,0.523 c -0.105,1.148 0.552,4.004 8.484,6.72 10.23,3.507 55.172,0.25 58.176,9.013 3.004,8.763 8.387,43.126 8.387,43.126 l -19.278,0.688 v -13.145 c 0,0 -1.241,-9.262 -12.951,-10.264 0,0 -12.293,0.829 -11.448,15.28 v 11.38 c 0,0 -35.726,0.412 -43.567,-11.566 l -1.483,6.225 c -0.063,0.157 -0.098,0.312 -0.098,0.469 0,4.47 25.559,8.096 57.089,8.096 31.529,0 57.089,-3.625 57.089,-8.096 0,-0.155 0,-0.467 0,-0.467 z"
   id="path746" />

				<path
   style="fill:#9b9ea0"
   d="m 170.547,85.436 -9.013,-1.051 -9.221,0.236 c 0.405,2.459 0.817,4.917 1.405,7.335 1.741,7.168 3.774,14.262 5.502,21.434 1.771,7.348 3.233,14.773 4.926,22.139 1.081,4.705 2.169,9.408 3.216,14.12 10.488,-1.468 16.99,-3.508 16.99,-5.762 0,-0.155 0,-0.467 0,-0.467 z"
   id="path747" />

			</g>

			<g
   id="g749">
				<path
   style="fill:#ffffff"
   d="m 136.767,151.015 v -17.821 c 0,-5.22 -4.233,-9.453 -9.453,-9.453 -5.221,0 -9.454,4.233 -9.454,9.453 v 17.821 z"
   id="path748" />

				<path
   style="fill:#9b9ea0"
   d="m 136.767,151.265 h -18.908 c -0.137,0 -0.25,-0.113 -0.25,-0.251 v -17.821 c 0,-5.35 4.353,-9.703 9.704,-9.703 5.351,0 9.704,4.353 9.704,9.703 v 17.821 c 0,0.139 -0.111,0.251 -0.25,0.251 z m -18.656,-0.501 h 18.407 v -17.571 c 0,-5.074 -4.13,-9.204 -9.204,-9.204 -5.075,0 -9.203,4.13 -9.203,9.204 z"
   id="path749" />

			</g>

			<path
   style="fill:#9b9ea0"
   d="M 135.905,151.015 V 134.82 c 0,-4.744 -3.847,-8.592 -8.591,-8.592 -4.745,0 -8.592,3.847 -8.592,8.592 v 16.195 z"
   id="path750" />

			<g
   id="g752">
				<path
   style="fill:#ffffff"
   d="m 135.601,151.015 v -15.622 c 0,-4.577 -3.711,-8.288 -8.288,-8.288 -4.577,0 -8.288,3.711 -8.288,8.288 v 15.622 z"
   id="path751" />

				<path
   style="fill:#9b9ea0"
   d="m 135.601,151.265 h -16.576 c -0.139,0 -0.25,-0.113 -0.25,-0.251 v -15.622 c 0,-4.708 3.83,-8.538 8.538,-8.538 4.707,0 8.538,3.83 8.538,8.538 v 15.622 c 0.001,0.139 -0.112,0.251 -0.25,0.251 z m -16.325,-0.501 h 16.075 v -15.372 c 0,-4.432 -3.605,-8.037 -8.037,-8.037 -4.431,0 -8.038,3.605 -8.038,8.037 z"
   id="path752" />

			</g>

			<g
   id="g754">
				<path
   style="fill:#808285"
   d="m 130.467,133.929 c 0,1.904 -1.544,3.448 -3.449,3.448 -1.905,0 -3.449,-1.544 -3.449,-3.448 0,-1.904 1.544,-3.448 3.449,-3.448 1.905,0 3.449,1.544 3.449,3.448 z"
   id="path753" />

				<path
   style="fill:#4f5254"
   d="m 127.019,137.628 c -2.039,0 -3.699,-1.658 -3.699,-3.698 0,-2.039 1.66,-3.698 3.699,-3.698 2.039,0 3.698,1.66 3.698,3.698 0,2.039 -1.659,3.698 -3.698,3.698 z m 0,-6.898 c -1.764,0 -3.198,1.436 -3.198,3.199 0,1.763 1.435,3.197 3.198,3.197 1.763,0 3.198,-1.435 3.198,-3.197 0,-1.762 -1.436,-3.199 -3.198,-3.199 z"
   id="path754" />

			</g>

			<path
   style="fill:#00000a"
   d="m 129.336,133.929 c 0,1.279 -1.038,2.317 -2.317,2.317 -1.28,0 -2.318,-1.038 -2.318,-2.317 0,-1.281 1.038,-2.318 2.318,-2.318 1.28,0.001 2.317,1.037 2.317,2.318 z"
   id="path755" />

			<g
   id="g769">
				<g
   id="g757">
					<path
   style="fill:#ffffff"
   d="m 118.293,180.536 c 0,0.588 -0.476,1.064 -1.064,1.064 v 0 c -0.588,0 -1.064,-0.476 -1.064,-1.064 v -32.17 c 0,-0.588 0.476,-1.065 1.064,-1.065 v 0 c 0.587,0 1.064,0.477 1.064,1.065 z"
   id="path756" />

					<path
   style="fill:#9b9ea0"
   d="m 117.229,181.852 c -0.725,0 -1.315,-0.591 -1.315,-1.316 v -32.17 c 0,-0.726 0.59,-1.316 1.315,-1.316 0.724,0 1.313,0.59 1.313,1.316 v 32.17 c 0.001,0.725 -0.588,1.316 -1.313,1.316 z m 0,-34.301 c -0.449,0 -0.815,0.365 -0.815,0.815 v 32.17 c 0,0.449 0.365,0.815 0.815,0.815 0.448,0 0.813,-0.366 0.813,-0.815 v -32.17 c 0,-0.45 -0.365,-0.815 -0.813,-0.815 z"
   id="path757" />

				</g>

				<g
   id="g759">
					<path
   style="fill:#ffffff"
   d="m 137.874,180.536 c 0,0.588 -0.476,1.064 -1.065,1.064 v 0 c -0.587,0 -1.064,-0.476 -1.064,-1.064 v -32.17 c 0,-0.588 0.476,-1.065 1.064,-1.065 v 0 c 0.588,0 1.065,0.477 1.065,1.065 z"
   id="path758" />

					<path
   style="fill:#9b9ea0"
   d="m 136.809,181.852 c -0.725,0 -1.314,-0.591 -1.314,-1.316 v -32.17 c 0,-0.726 0.59,-1.316 1.314,-1.316 0.725,0 1.314,0.59 1.314,1.316 v 32.17 c 0,0.725 -0.589,1.316 -1.314,1.316 z m 0,-34.301 c -0.449,0 -0.813,0.365 -0.813,0.815 v 32.17 c 0,0.449 0.365,0.815 0.813,0.815 0.449,0 0.814,-0.366 0.814,-0.815 v -32.17 c 0,-0.45 -0.365,-0.815 -0.814,-0.815 z"
   id="path759" />

				</g>

				<g
   id="g768">
					<g
   id="g761">
						<path
   style="fill:#ffffff"
   d="m 117.653,154.187 c -0.342,0 -0.62,-0.239 -0.62,-0.533 v 0 c 0,-0.295 0.277,-0.533 0.62,-0.533 h 18.732 c 0.342,0 0.62,0.238 0.62,0.533 v 0 c 0,0.293 -0.278,0.533 -0.62,0.533 z"
   id="path760" />

						<path
   style="fill:#9b9ea0"
   d="m 136.385,154.437 h -18.732 c -0.48,0 -0.87,-0.352 -0.87,-0.783 0,-0.431 0.39,-0.783 0.87,-0.783 h 18.732 c 0.479,0 0.869,0.352 0.869,0.783 0,0.431 -0.39,0.783 -0.869,0.783 z m -18.732,-1.065 c -0.201,0 -0.37,0.13 -0.37,0.282 0,0.152 0.17,0.282 0.37,0.282 h 18.732 c 0.201,0 0.369,-0.13 0.369,-0.282 0,-0.152 -0.169,-0.282 -0.369,-0.282 z"
   id="path761" />

					</g>

					<g
   id="g763">
						<path
   style="fill:#ffffff"
   d="m 117.653,162.363 c -0.342,0 -0.62,-0.236 -0.62,-0.531 v 0 c 0,-0.293 0.277,-0.533 0.62,-0.533 h 18.732 c 0.342,0 0.62,0.239 0.62,0.533 v 0 c 0,0.295 -0.278,0.531 -0.62,0.531 z"
   id="path762" />

						<path
   style="fill:#9b9ea0"
   d="m 136.385,162.614 h -18.732 c -0.48,0 -0.87,-0.35 -0.87,-0.781 0,-0.431 0.39,-0.783 0.87,-0.783 h 18.732 c 0.479,0 0.869,0.352 0.869,0.783 0,0.43 -0.39,0.781 -0.869,0.781 z m -18.732,-1.064 c -0.201,0 -0.37,0.13 -0.37,0.282 0,0.152 0.17,0.282 0.37,0.282 h 18.732 c 0.201,0 0.369,-0.13 0.369,-0.282 0,-0.152 -0.169,-0.282 -0.369,-0.282 z"
   id="path763" />

					</g>

					<g
   id="g765">
						<path
   style="fill:#ffffff"
   d="m 117.653,178.721 c -0.342,0 -0.62,-0.238 -0.62,-0.533 v 0 c 0,-0.293 0.277,-0.531 0.62,-0.531 h 18.732 c 0.342,0 0.62,0.238 0.62,0.531 v 0 c 0,0.295 -0.278,0.533 -0.62,0.533 z"
   id="path764" />

						<path
   style="fill:#9b9ea0"
   d="m 136.385,178.972 h -18.732 c -0.48,0 -0.87,-0.35 -0.87,-0.783 0,-0.43 0.39,-0.781 0.87,-0.781 h 18.732 c 0.479,0 0.869,0.352 0.869,0.781 0,0.432 -0.39,0.783 -0.869,0.783 z m -18.732,-1.064 c -0.201,0 -0.37,0.128 -0.37,0.281 0,0.154 0.17,0.282 0.37,0.282 h 18.732 c 0.201,0 0.369,-0.128 0.369,-0.282 0,-0.152 -0.169,-0.281 -0.369,-0.281 z"
   id="path765" />

					</g>

					<g
   id="g767">
						<path
   style="fill:#ffffff"
   d="m 117.653,170.543 c -0.342,0 -0.62,-0.238 -0.62,-0.531 v 0 c 0,-0.295 0.277,-0.533 0.62,-0.533 h 18.732 c 0.342,0 0.62,0.238 0.62,0.533 v 0 c 0,0.293 -0.278,0.531 -0.62,0.531 z"
   id="path766" />

						<path
   style="fill:#9b9ea0"
   d="m 136.385,170.794 h -18.732 c -0.48,0 -0.87,-0.352 -0.87,-0.782 0,-0.433 0.39,-0.783 0.87,-0.783 h 18.732 c 0.479,0 0.869,0.35 0.869,0.783 0,0.43 -0.39,0.782 -0.869,0.782 z m -18.732,-1.064 c -0.201,0 -0.37,0.128 -0.37,0.282 0,0.152 0.17,0.281 0.37,0.281 h 18.732 c 0.201,0 0.369,-0.128 0.369,-0.281 0,-0.154 -0.169,-0.282 -0.369,-0.282 z"
   id="path767" />

					</g>

				</g>

			</g>

			<path
   style="fill:#afb1b4"
   d="m 127.019,151.265 c -0.139,0 -0.25,-0.102 -0.25,-0.228 v -12.438 c 0,-0.125 0.111,-0.228 0.25,-0.228 0.139,0 0.25,0.103 0.25,0.228 v 12.438 c 0,0.127 -0.112,0.228 -0.25,0.228 z"
   id="path769" />

			<g
   id="g771">
				<path
   style="fill:#ffffff"
   d="m 170.45,85.436 c 0,3.383 -19.336,6.125 -43.188,6.125 -23.852,0 -43.188,-2.742 -43.188,-6.125 0,-3.381 19.336,-6.122 43.188,-6.122 23.852,0 43.188,2.741 43.188,6.122 z"
   id="path770" />

				<path
   style="fill:#9b9ea0"
   d="m 127.262,91.812 c -21.352,0 -43.438,-2.384 -43.438,-6.376 0,-3.99 22.086,-6.373 43.438,-6.373 21.352,0 43.438,2.383 43.438,6.373 0,3.992 -22.086,6.376 -43.438,6.376 z m 0,-12.249 c -25.684,0 -42.937,3.037 -42.937,5.873 0,2.837 17.254,5.875 42.937,5.875 25.684,0 42.938,-3.037 42.938,-5.875 0,-2.836 -17.254,-5.873 -42.938,-5.873 z"
   id="path771" />

			</g>

			<g
   id="g773">
				<path
   style="fill:#ffffff"
   d="m 162.091,85.436 c 0,2.728 -15.594,4.94 -34.829,4.94 -19.235,0 -34.828,-2.212 -34.828,-4.94 0,-2.727 15.593,-4.938 34.828,-4.938 19.235,0 34.829,2.211 34.829,4.938 z"
   id="path772" />

				<path
   style="fill:#9b9ea0"
   d="m 127.262,90.626 c -9.315,0 -18.074,-0.515 -24.663,-1.449 -6.911,-0.98 -10.416,-2.238 -10.416,-3.741 0,-1.501 3.505,-2.758 10.416,-3.739 6.589,-0.934 15.348,-1.449 24.663,-1.449 9.314,0 18.073,0.515 24.663,1.449 6.912,0.981 10.417,2.238 10.417,3.739 0,1.503 -3.504,2.762 -10.417,3.741 -6.59,0.934 -15.348,1.449 -24.663,1.449 z m 0,-9.878 c -20.683,0 -34.578,2.424 -34.578,4.688 0,2.265 13.895,4.689 34.578,4.689 20.684,0 34.578,-2.424 34.578,-4.689 0,-2.264 -13.893,-4.688 -34.578,-4.688 z"
   id="path773" />

			</g>

			<g
   id="g780">
				<g
   id="g775">
					<path
   style="fill:#a5a7aa"
   d="m 160.697,86.82 c 0.901,-0.439 1.394,-0.904 1.394,-1.384 0,-2.727 -15.594,-4.938 -34.829,-4.938 -19.235,0 -34.828,2.211 -34.828,4.938 0,0.48 0.492,0.945 1.394,1.384 4.217,-2.054 17.586,-3.557 33.435,-3.557 15.847,0 29.215,1.502 33.434,3.557 z"
   id="path774" />

					<path
   style="fill:#9b9ea0"
   d="m 93.827,87.07 c -0.038,0 -0.075,-0.008 -0.111,-0.025 -1.031,-0.504 -1.534,-1.029 -1.534,-1.609 0,-1.501 3.505,-2.758 10.416,-3.739 6.589,-0.934 15.348,-1.449 24.663,-1.449 9.314,0 18.073,0.515 24.663,1.449 6.912,0.981 10.417,2.238 10.417,3.739 0,0.58 -0.503,1.105 -1.535,1.609 -0.069,0.033 -0.15,0.033 -0.219,0 -4.27,-2.08 -17.972,-3.53 -33.325,-3.53 -15.352,0 -29.056,1.45 -33.325,3.53 -0.035,0.017 -0.072,0.025 -0.11,0.025 z m 33.435,-4.058 c 15.289,0 28.981,1.449 33.433,3.529 0.75,-0.382 1.145,-0.763 1.145,-1.105 0,-2.264 -13.894,-4.688 -34.578,-4.688 -20.683,0 -34.578,2.424 -34.578,4.688 0,0.342 0.395,0.723 1.146,1.105 4.452,-2.08 18.143,-3.529 33.432,-3.529 z"
   id="path775" />

				</g>

				<g
   id="g777">
					<path
   style="fill:#ffffff"
   d="m 160.697,86.82 c -4.218,-2.054 -17.586,-3.557 -33.434,-3.557 -15.849,0 -29.217,1.503 -33.435,3.557 4.217,2.054 17.586,3.556 33.435,3.556 15.847,0 29.215,-1.502 33.434,-3.556 z"
   id="path776" />

					<path
   style="fill:#9b9ea0"
   d="m 127.262,90.626 c -15.42,0 -29.215,-1.473 -33.545,-3.581 -0.086,-0.043 -0.14,-0.13 -0.14,-0.225 0,-0.097 0.054,-0.184 0.14,-0.225 4.33,-2.108 18.125,-3.583 33.545,-3.583 15.42,0 29.214,1.474 33.544,3.583 0.086,0.041 0.141,0.128 0.141,0.225 0,0.095 -0.055,0.182 -0.141,0.225 -4.33,2.108 -18.124,3.581 -33.544,3.581 z M 94.442,86.82 c 4.767,1.958 18.029,3.305 32.82,3.305 14.792,0 28.053,-1.347 32.82,-3.305 -4.767,-1.958 -18.028,-3.305 -32.82,-3.305 -14.792,0 -28.054,1.347 -32.82,3.305 z"
   id="path777" />

				</g>

				<g
   id="g779">
					<path
   style="fill:#a5a7aa"
   d="m 137.874,86.657 c 0,0.541 -3.093,0.978 -6.908,0.978 -3.815,0 -6.908,-0.438 -6.908,-0.978 0,-0.541 3.093,-0.98 6.908,-0.98 3.815,0 6.908,0.439 6.908,0.98 z"
   id="path778" />

					<path
   style="fill:#9b9ea0"
   d="m 130.966,87.885 c -1.196,0 -7.159,-0.059 -7.159,-1.229 0,-1.171 5.963,-1.232 7.159,-1.232 1.195,0 7.157,0.061 7.157,1.232 0,1.17 -5.963,1.229 -7.157,1.229 z m -6.622,-1.228 c 0.415,0.312 2.864,0.728 6.621,0.728 3.758,0 6.207,-0.415 6.622,-0.728 -0.415,-0.314 -2.865,-0.731 -6.622,-0.731 -3.756,0 -6.205,0.417 -6.621,0.731 z"
   id="path779" />

				</g>

			</g>

			<path
   style="fill:#afb1b4"
   d="m 127.313,124.038 c -0.139,0 -0.25,-0.111 -0.25,-0.25 V 91.915 c 0,-0.14 0.112,-0.251 0.25,-0.251 0.139,0 0.251,0.111 0.251,0.251 v 31.872 c 0,0.139 -0.112,0.251 -0.251,0.251 z"
   id="path780" />

			<g
   id="g797">
				<g
   id="g783">
					<g
   id="g782">
						<path
   style="fill:#ffffff"
   d="m 108.678,83.079 h -5.173 v 4.971 c 0,0.203 1.158,0.366 2.586,0.366 1.428,0 2.587,-0.163 2.587,-0.366 0,-0.003 -0.002,-0.006 -0.002,-0.009 h 0.002 z"
   id="path781" />

						<path
   style="fill:#9b9ea0"
   d="m 106.091,88.667 c -2.837,0 -2.837,-0.464 -2.837,-0.617 v -4.971 c 0,-0.138 0.112,-0.249 0.251,-0.249 h 5.173 c 0.139,0 0.251,0.111 0.251,0.249 v 4.949 c 0,0.005 0,0.013 0,0.022 0,0.152 0,0.617 -2.838,0.617 z m -2.337,-0.722 c 0.233,0.089 1.034,0.22 2.337,0.22 1.304,0 2.104,-0.132 2.337,-0.22 v -4.616 h -4.674 z"
   id="path782" />

					</g>

				</g>

				<g
   id="g785">
					<g
   id="g784">
						<path
   style="fill:#b8babc"
   d="m 108.678,83.079 h -5.173 v 4.971 c 0,0.203 1.158,0.366 2.586,0.366 1.428,0 2.587,-0.163 2.587,-0.366 0,-0.003 -0.002,-0.006 -0.002,-0.009 h 0.002 z"
   id="path783" />

						<path
   style="fill:#9b9ea0"
   d="m 106.091,88.667 c -2.837,0 -2.837,-0.464 -2.837,-0.617 v -4.971 c 0,-0.138 0.112,-0.249 0.251,-0.249 h 5.173 c 0.139,0 0.251,0.111 0.251,0.249 v 4.949 c 0,0.005 0,0.013 0,0.022 0,0.152 0,0.617 -2.838,0.617 z m -2.337,-0.722 c 0.233,0.089 1.034,0.22 2.337,0.22 1.304,0 2.104,-0.132 2.337,-0.22 v -4.616 h -4.674 z"
   id="path784" />

					</g>

				</g>

				<g
   id="g786">
					<path
   style="fill:#808794"
   d="m 104.142,83.079 h -0.637 v 4.971 c 0,0.092 0.241,0.178 0.637,0.24 z"
   id="path785" />

					<path
   style="fill:#808794"
   d="m 108.678,83.079 h -2.159 v 5.333 c 1.225,-0.029 2.159,-0.179 2.159,-0.362 0,-0.003 -0.002,-0.006 -0.002,-0.009 h 0.002 z"
   id="path786" />

				</g>

				<g
   id="g788">
					<path
   style="fill:#ffffff"
   d="m 108.678,83.052 c 0,0.328 -1.159,0.595 -2.587,0.595 -1.428,0 -2.586,-0.266 -2.586,-0.595 0,-0.328 1.158,-0.594 2.586,-0.594 1.428,-0.001 2.587,0.266 2.587,0.594 z"
   id="path787" />

					<path
   style="fill:#9b9ea0"
   d="m 106.091,83.897 c -0.474,0 -2.837,-0.041 -2.837,-0.845 0,-0.804 2.363,-0.845 2.837,-0.845 0.474,0 2.838,0.041 2.838,0.845 0,0.803 -2.364,0.845 -2.838,0.845 z m -2.29,-0.845 c 0.228,0.14 1.012,0.344 2.289,0.344 1.277,0 2.062,-0.204 2.29,-0.344 -0.228,-0.138 -1.013,-0.344 -2.29,-0.344 -1.276,0 -2.061,0.206 -2.289,0.344 z"
   id="path788" />

				</g>

				<g
   id="g791">
					<g
   id="g790">
						<path
   style="fill:#ffffff"
   d="m 115.321,84.898 h -3.411 v 3.277 c 0,0.133 0.764,0.241 1.706,0.241 0.942,0 1.706,-0.108 1.706,-0.241 0,-0.003 -0.002,-0.005 -0.002,-0.006 h 0.002 v -3.271 z"
   id="path789" />

						<path
   style="fill:#9b9ea0"
   d="m 113.615,88.667 c -1.956,0 -1.956,-0.331 -1.956,-0.491 v -3.277 c 0,-0.138 0.113,-0.25 0.251,-0.25 h 3.411 c 0.137,0 0.25,0.113 0.25,0.25 v 3.27 c 0,0.022 -0.003,0.044 -0.009,0.065 -0.037,0.195 -0.292,0.433 -1.947,0.433 z m -1.455,-0.623 c 0.195,0.054 0.699,0.122 1.455,0.122 0.754,0 1.258,-0.068 1.453,-0.122 l 0.001,-2.895 h -2.91 v 2.895 z"
   id="path790" />

					</g>

				</g>

				<g
   id="g793">
					<g
   id="g792">
						<path
   style="fill:#b8babc"
   d="m 115.321,84.898 h -3.411 v 3.277 c 0,0.133 0.764,0.241 1.706,0.241 0.942,0 1.706,-0.108 1.706,-0.241 0,-0.003 -0.002,-0.005 -0.002,-0.006 h 0.002 v -3.271 z"
   id="path791" />

						<path
   style="fill:#9b9ea0"
   d="m 113.615,88.667 c -1.956,0 -1.956,-0.331 -1.956,-0.491 v -3.277 c 0,-0.138 0.113,-0.25 0.251,-0.25 h 3.411 c 0.137,0 0.25,0.113 0.25,0.25 v 3.27 c 0,0.022 -0.003,0.044 -0.009,0.065 -0.037,0.195 -0.292,0.433 -1.947,0.433 z m -1.455,-0.623 c 0.195,0.054 0.699,0.122 1.455,0.122 0.754,0 1.258,-0.068 1.453,-0.122 l 0.001,-2.895 h -2.91 v 2.895 z"
   id="path792" />

					</g>

				</g>

				<g
   id="g794">
					<path
   style="fill:#808794"
   d="m 112.329,84.898 h -0.42 v 3.277 c 0,0.06 0.159,0.116 0.42,0.158 z"
   id="path793" />

					<path
   style="fill:#808794"
   d="m 115.321,84.898 h -1.424 v 3.515 c 0.807,-0.019 1.424,-0.118 1.424,-0.238 0,-0.003 -0.002,-0.005 -0.002,-0.006 h 0.002 z"
   id="path794" />

				</g>

				<g
   id="g796">
					<path
   style="fill:#ffffff"
   d="m 115.321,84.88 c 0,0.217 -0.764,0.393 -1.706,0.393 -0.942,0 -1.706,-0.176 -1.706,-0.393 0,-0.215 0.764,-0.392 1.706,-0.392 0.942,0 1.706,0.176 1.706,0.392 z"
   id="path795" />

					<path
   style="fill:#9b9ea0"
   d="m 113.615,85.523 c -0.588,0 -1.956,-0.063 -1.956,-0.644 0,-0.58 1.368,-0.642 1.956,-0.642 0.587,0 1.955,0.062 1.955,0.642 0,0.581 -1.368,0.644 -1.955,0.644 z m -1.281,-0.643 c 0.242,0.071 0.677,0.143 1.281,0.143 0.603,0 1.039,-0.071 1.28,-0.143 -0.241,-0.07 -0.677,-0.141 -1.28,-0.141 -0.604,0 -1.039,0.071 -1.281,0.141 z"
   id="path796" />

				</g>

			</g>

			<g
   id="g831">
				<g
   id="g830">
					<g
   id="g829">
						<g
   id="g826">
							<g
   id="g802">
								<path
   style="fill:#7d7e81"
   d="m 141.337,84.252 c -1.949,1.013 -5.441,1.682 -9.347,1.799 -4.729,0.143 -11.867,-0.518 -13.243,-1.963 l -1.247,0.017 0.063,3.158 h 0.015 c -0.008,0.041 -0.014,0.081 -0.012,0.122 0.029,1.444 5.777,2.533 12.838,2.436 7.063,-0.095 12.764,-1.344 12.735,-2.787 0,-0.041 -0.008,-0.082 -0.017,-0.122 l 10e-4,0.002 -0.063,-3.159 -0.971,0.014 c -0.203,0.166 -0.453,0.327 -0.752,0.483 z"
   id="path797" />

								<g
   id="g800">
									<g
   id="g799">
										<path
   style="fill:#ffffff"
   d="m 141.337,84.252 c -1.949,1.013 -5.441,1.682 -9.347,1.799 -4.729,0.143 -11.867,-0.518 -13.243,-1.963 l -1.204,0.136 0.019,3.039 h 0.015 c -0.008,0.041 -0.014,0.081 -0.012,0.122 0.029,1.444 5.777,2.533 12.838,2.436 7.063,-0.095 12.764,-1.344 12.735,-2.787 0,-0.041 -0.008,-0.082 -0.017,-0.122 l 0.001,0.002 -0.063,-3.159 -0.971,0.014 c -0.202,0.166 -0.452,0.327 -0.751,0.483 z"
   id="path798" />

										<path
   style="fill:#9b9ea0"
   d="m 129.535,90.079 c -6.046,0 -12.184,-0.924 -12.22,-2.688 -0.001,-0.027 0,-0.052 0.003,-0.078 -0.003,-0.014 -0.005,-0.032 -0.005,-0.046 l -0.02,-3.04 c -0.001,-0.128 0.095,-0.236 0.223,-0.251 l 1.204,-0.136 c 0.078,-0.008 0.156,0.021 0.21,0.078 1.134,1.19 6.864,1.904 11.747,1.904 0.451,0 0.888,-0.006 1.306,-0.021 3.874,-0.117 7.328,-0.778 9.237,-1.771 0.279,-0.144 0.517,-0.297 0.71,-0.455 0.043,-0.035 0.097,-0.055 0.155,-0.055 l 0.97,-0.013 c 0.002,0 0.003,0 0.003,0 0.136,0 0.249,0.108 0.251,0.244 l 0.061,3.088 c 0.008,0.024 0.011,0.051 0.011,0.076 0,0.008 0,0.018 -0.001,0.025 0.004,0.033 0.006,0.065 0.006,0.095 0.005,0.241 -0.102,0.479 -0.319,0.704 -1.247,1.29 -6.454,2.25 -12.662,2.333 -0.291,0.006 -0.582,0.007 -0.87,0.007 z m -11.722,-2.888 c 0.014,0.038 0.02,0.081 0.011,0.122 -0.006,0.03 -0.008,0.049 -0.008,0.063 0.018,0.926 4.102,2.202 11.719,2.202 0.286,0 0.575,-0.002 0.866,-0.006 5.892,-0.079 11.185,-1.016 12.309,-2.181 0.12,-0.124 0.18,-0.243 0.178,-0.35 0,-0.021 -0.004,-0.043 -0.009,-0.07 -0.006,-0.022 -0.007,-0.046 -0.006,-0.068 l -0.058,-2.893 -0.637,0.009 c -0.205,0.16 -0.449,0.312 -0.726,0.455 -1.971,1.026 -5.507,1.709 -9.453,1.828 -0.422,0.013 -0.866,0.021 -1.321,0.021 -3.998,0 -10.409,-0.528 -12.018,-1.972 l -0.865,0.098 z"
   id="path799" />

									</g>

								</g>

								<g
   id="g801">
									<path
   style="fill:#9b9ea0"
   d="m 143.122,86.913 10e-4,0.002 -0.063,-3.159 -0.971,0.014 c -0.202,0.165 -0.452,0.327 -0.751,0.482 -1.82,0.945 -4.985,1.59 -8.574,1.769 v 3.725 c 5.93,-0.308 10.4,-1.433 10.375,-2.711 0,-0.041 -0.008,-0.082 -0.017,-0.122 z"
   id="path800" />

								</g>

							</g>

							<path
   style="fill:#7d7e81"
   d="m 119.345,84.081 -0.269,0.005 c 1.397,1.382 8.388,2.037 12.911,1.874 3.831,-0.138 7.368,-0.775 9.18,-1.807 0.296,-0.168 0.539,-0.341 0.726,-0.517 -0.005,-0.041 -0.011,-0.078 -0.014,-0.106 -0.051,-0.365 -0.919,-0.709 -1.716,-0.961 -2.097,-0.667 -5.171,-0.902 -8.212,-0.965 -3.185,-0.068 -6.815,0.049 -9.45,0.664 -1.245,0.292 -2.231,0.672 -2.893,1.092 -0.407,0.258 -0.465,0.495 -0.263,0.721 z"
   id="path802" />

							<path
   style="opacity:0.5;fill:#7d7e81"
   d="m 122.502,82.267 c -1.245,0.292 -2.231,0.672 -2.893,1.092 -0.407,0.258 -0.465,0.496 -0.263,0.721 l -0.269,0.005 c 0.344,0.339 1.03,0.636 1.933,0.888 1.409,-0.9 4.853,-1.449 8.323,-1.612 2.559,-0.122 5.982,-0.173 7.987,0.355 0.934,0.243 1.485,0.585 2.035,0.91 0.089,0.052 0.193,0.111 0.296,0.176 0.583,-0.197 1.098,-0.412 1.517,-0.65 0.296,-0.168 0.539,-0.341 0.726,-0.517 -0.005,-0.041 -0.011,-0.078 -0.014,-0.106 -0.051,-0.365 -0.919,-0.709 -1.716,-0.961 -2.097,-0.667 -5.171,-0.902 -8.212,-0.965 -3.185,-0.068 -6.816,0.049 -9.45,0.664 z"
   id="path803" />

							<path
   style="fill:#66686a"
   d="m 124.175,81.96 c -0.589,0.084 -1.152,0.185 -1.673,0.307 -1.245,0.292 -2.231,0.672 -2.893,1.092 -0.407,0.258 -0.465,0.496 -0.263,0.721 l -0.269,0.005 c 0.688,0.678 2.732,1.184 5.169,1.501 z"
   id="path804" />

							<path
   style="fill:#7d7e81"
   d="m 126.401,81.722 c -0.158,0.013 -0.314,0.022 -0.469,0.038 l 0.079,4.019 c 0.157,0.013 0.315,0.025 0.471,0.036 z"
   id="path805" />

							<path
   style="fill:#66686a"
   d="m 133.757,85.856 c 3.124,-0.246 5.881,-0.834 7.41,-1.704 0.296,-0.168 0.539,-0.341 0.726,-0.517 -0.005,-0.041 -0.011,-0.078 -0.014,-0.106 -0.051,-0.365 -0.919,-0.709 -1.716,-0.961 -1.701,-0.54 -4.043,-0.797 -6.49,-0.91 z"
   id="path806" />

							<g
   id="g808">
								<path
   style="fill:#a7a9ac"
   d="m 117.5,84.106 c 0.029,1.442 5.777,2.535 12.839,2.438 7.061,-0.098 12.764,-1.346 12.735,-2.788 -0.029,-1.442 -5.777,-2.535 -12.839,-2.438 -7.062,0.096 -12.764,1.345 -12.735,2.788 z m 22.028,-0.533 c 0.02,0.999 -3.927,1.864 -8.816,1.932 -4.889,0.065 -8.867,-0.69 -8.887,-1.69 -0.02,-0.999 3.927,-1.863 8.815,-1.929 4.889,-0.066 8.868,0.689 8.888,1.687 z"
   id="path807" />

								<path
   style="fill:#404042"
   d="m 129.471,86.666 h -0.002 c -5.845,0 -12.077,-0.897 -12.109,-2.559 -0.033,-1.707 6.519,-2.818 12.873,-2.906 0.293,-0.003 0.583,-0.006 0.871,-0.006 5.846,0 12.077,0.896 12.11,2.558 0.033,1.709 -6.518,2.819 -12.872,2.904 -0.293,0.007 -0.584,0.009 -0.871,0.009 z m 1.633,-5.238 c -0.287,0 -0.575,0.002 -0.867,0.005 -6.855,0.094 -12.624,1.317 -12.597,2.67 0.026,1.286 5.333,2.332 11.83,2.332 h 0.001 c 0.287,0 0.575,-0.003 0.866,-0.008 6.855,-0.093 12.623,-1.316 12.597,-2.669 -0.026,-1.286 -5.332,-2.33 -11.83,-2.33 z m -0.993,4.197 c -4.067,0 -8.403,-0.634 -8.427,-1.807 -0.024,-1.205 4.534,-1.988 8.954,-2.048 0.202,-0.002 0.403,-0.003 0.603,-0.003 4.068,0 8.403,0.634 8.427,1.806 0.024,1.205 -4.534,1.988 -8.954,2.048 -0.202,0.002 -0.402,0.004 -0.603,0.004 z m 1.131,-3.626 c -0.198,0 -0.398,0 -0.599,0.003 -5.212,0.071 -8.693,0.994 -8.677,1.812 0.015,0.758 3.134,1.577 8.146,1.577 0.199,0 0.398,-0.001 0.599,-0.003 5.21,-0.073 8.694,-0.996 8.678,-1.814 -0.015,-0.758 -3.135,-1.575 -8.147,-1.575 z"
   id="path808" />

							</g>

							<path
   style="fill:#46494b"
   d="m 120.024,84.011 c 0.024,1.211 4.712,2.127 10.47,2.048 5.758,-0.079 10.405,-1.124 10.382,-2.332 -0.025,-1.209 -4.712,-2.126 -10.47,-2.046 -5.757,0.079 -10.406,1.122 -10.382,2.33 z m 19.504,-0.438 c 0.02,0.999 -3.927,1.864 -8.816,1.932 -4.889,0.065 -8.867,-0.69 -8.887,-1.69 -0.02,-0.999 3.927,-1.863 8.815,-1.929 4.889,-0.066 8.868,0.689 8.888,1.687 z"
   id="path809" />

							<path
   style="fill:#abadb0"
   d="m 141.531,83.718 c 0.003,0.079 -0.217,0.146 -0.488,0.151 -0.272,0.003 -0.494,-0.057 -0.495,-0.138 -0.005,-0.298 -1.824,-0.534 -2.562,-0.602 -1.086,0.013 -12.39,0.135 -14.716,0.201 -1.982,0.057 -2.243,0.512 -2.268,0.563 -0.036,0.079 -0.28,0.138 -0.549,0.133 -0.267,-0.009 -0.461,-0.076 -0.427,-0.155 0.105,-0.257 0.905,-0.761 3.187,-0.827 2.463,-0.071 14.356,-0.198 14.859,-0.203 0.054,0 0.107,0.001 0.158,0.005 0.032,0.003 0.8,0.073 1.579,0.203 1.138,0.19 1.717,0.415 1.722,0.669 z"
   id="path810" />

							<path
   style="fill:#abadb0"
   d="m 131.002,81.514 0.089,4.462 c 0.002,0.079 -0.218,0.147 -0.489,0.151 -0.272,0.003 -0.494,-0.057 -0.495,-0.138 l -0.089,-4.462 c -0.002,-0.079 0.217,-0.146 0.489,-0.151 0.272,-0.001 0.493,0.057 0.495,0.138 z"
   id="path811" />

							<path
   style="fill:#abadb0"
   d="m 137.275,81.947 c 0,0.014 -0.007,0.03 -0.024,0.044 -0.079,0.076 -0.354,0.124 -0.614,0.103 -0.64,-0.051 -1.295,0.133 -1.301,0.135 -0.013,0.003 -0.027,0.006 -0.04,0.01 -0.101,0.024 -10.11,2.363 -11.234,2.638 -0.867,0.209 -0.449,0.601 -0.444,0.605 0.082,0.074 -0.062,0.157 -0.321,0.184 -0.258,0.029 -0.534,-0.01 -0.617,-0.087 -0.027,-0.022 -0.623,-0.582 0.77,-0.921 1.121,-0.273 10.622,-2.493 11.235,-2.638 0.166,-0.044 1.134,-0.292 2.242,-0.205 0.211,0.016 0.346,0.072 0.348,0.132 z"
   id="path812" />

							<path
   style="fill:#abadb0"
   d="m 138.935,85.141 c 0.002,0.078 -0.219,0.146 -0.49,0.151 -0.273,0.003 -0.495,-0.059 -0.495,-0.138 -0.008,-0.409 -1.742,-0.723 -1.759,-0.728 -0.01,-0.002 -0.017,-0.003 -0.027,-0.005 -4.867,-0.989 -10.432,-2.066 -11.157,-2.108 -0.692,-0.022 -1.207,0.195 -1.213,0.198 -0.155,0.065 -0.462,0.084 -0.684,0.041 -0.223,-0.041 -0.278,-0.128 -0.125,-0.196 0.034,-0.016 0.862,-0.371 2.179,-0.33 1.064,0.033 9.111,1.655 11.573,2.153 0.208,0.038 2.186,0.409 2.198,0.962 z"
   id="path813" />

							<g
   id="g816">
								<path
   style="fill:#3f4143"
   d="m 130.758,82.182 c 2.982,-0.041 5.409,0.395 5.42,0.975 0.012,0.58 -2.397,1.079 -5.38,1.122 -2.983,0.04 -5.41,-0.396 -5.422,-0.975 -0.01,-0.58 2.399,-1.083 5.382,-1.122 z"
   id="path814" />

								<path
   style="fill:#131517"
   d="m 130.758,82.182 c 2.689,-0.037 4.877,0.357 4.889,0.878 0.011,0.523 -2.162,0.975 -4.852,1.013 -2.691,0.036 -4.879,-0.357 -4.89,-0.88 -0.01,-0.522 2.161,-0.975 4.853,-1.011 z"
   id="path815" />

								<path
   style="fill:#231f20"
   d="m 130.758,82.245 c 2.538,-0.035 4.605,0.323 4.613,0.802 0.01,0.479 -2.041,0.894 -4.579,0.929 -2.538,0.035 -4.604,-0.325 -4.613,-0.802 -0.009,-0.479 2.041,-0.894 4.579,-0.929 z"
   id="path816" />

							</g>

							<path
   style="fill:#7d7e81"
   d="m 117.851,87.728 c 0,0 2.308,2.197 12.822,1.996 0,0 -8.973,0.089 -12.822,-1.996 z"
   id="path817" />

							<path
   style="fill:#96979a"
   d="m 123.252,85.327 c 0,0 -0.136,-0.276 0.384,-0.414 0.523,-0.136 3.349,-0.818 3.349,-0.818 l -3.431,0.762 c -0.001,0 -0.866,0.209 -0.302,0.47 z"
   id="path818" />

							<path
   style="fill:#96979a"
   d="m 120.809,83.832 c 0,0 0.434,-0.449 1.762,-0.525 l 2.672,-0.105 -2.624,0.036 c 0,0.001 -1.82,0.071 -1.81,0.594 z"
   id="path819" />

							<path
   style="fill:#96979a"
   d="m 123.653,82.451 c 0,0 0.58,-0.219 1.274,-0.192 0.692,0.027 1.878,0.244 1.878,0.244 0,0 -1.095,-0.291 -1.879,-0.314 -0.785,-0.022 -1.273,0.262 -1.273,0.262 z"
   id="path820" />

							<path
   style="fill:#96979a"
   d="m 130.663,86.083 c 0,0 -0.43,0.025 -0.415,-0.117 l -0.031,-1.622 0.184,1.603 c 0,-0.001 -0.022,0.106 0.262,0.136 z"
   id="path821" />

							<path
   style="fill:#96979a"
   d="m 138.177,85.235 c 0,0 -0.006,-0.284 -0.501,-0.474 -0.534,-0.206 -3.192,-0.774 -3.192,-0.774 0,0 2.718,0.506 3.301,0.739 0.583,0.233 0.392,0.509 0.392,0.509 z"
   id="path822" />

							<path
   style="fill:#96979a"
   d="m 136.318,83.122 1.657,-0.032 c 0,0 1.385,0.052 2.322,0.407 0,0 -0.908,-0.42 -2.298,-0.447 h -1.683 z"
   id="path823" />

							<path
   style="fill:#96979a"
   d="m 134.452,82.377 1.348,-0.289 c 0,0 0.441,-0.078 1.021,-0.032 0,0 -0.426,-0.113 -1.028,-0.021 -0.601,0.092 -1.526,0.319 -1.526,0.319 z"
   id="path824" />

							<path
   style="fill:#96979a"
   d="m 130.178,82.155 -0.013,-0.625 c 0,0 0.008,-0.079 0.17,-0.108 l 0.015,0.731 z"
   id="path825" />

							<path
   style="fill:#939598"
   d="m 117.776,83.957 c 0,0 -0.506,1.622 6.493,2.308 7,0.688 17.206,-0.314 18.28,-2.067 0,0 -2.041,1.357 -7.475,1.909 -6.113,0.621 -15.656,0.348 -17.298,-2.15 z"
   id="path826" />

						</g>

						<g
   id="g828">
							<path
   style="fill:#bec0c2"
   d="m 130.111,85.566 v 0 c -4.744,0 -8.337,-0.753 -8.357,-1.749 -0.021,-1.048 3.882,-1.921 8.885,-1.988 0.202,-0.005 0.403,-0.005 0.602,-0.005 4.745,0 8.337,0.751 8.358,1.747 0.018,1.048 -3.884,1.921 -8.887,1.99 -0.201,0.003 -0.4,0.005 -0.601,0.005 z m 1.131,-3.625 c -0.199,0 -0.399,0 -0.601,0.003 -4.759,0.067 -8.765,0.921 -8.746,1.871 0.019,0.902 3.705,1.636 8.217,1.636 v 0 c 0.199,0 0.399,-0.002 0.6,-0.005 4.76,-0.063 8.766,-0.921 8.747,-1.87 -0.019,-0.903 -3.705,-1.635 -8.217,-1.635 z"
   id="path827" />

							<path
   style="fill:#a7a9ac"
   d="m 143.063,83.66 c -0.003,0.087 -0.008,0.176 -0.013,0.263 0.016,-0.055 0.026,-0.111 0.024,-0.168 0,-0.031 -0.006,-0.063 -0.011,-0.095 z"
   id="path828" />

						</g>

					</g>

				</g>

			</g>

			<g
   id="g866">
				<g
   id="g832">
					<path
   style="fill:#5c5d60"
   d="m 133.616,139.089 -0.597,0.005 -3.163,0.032 -0.596,0.005 c -0.591,0.006 -0.684,0.461 -0.751,0.826 l 0.021,2.102 0.015,1.649 0.001,0.06 h 0.013 c 0.073,0.349 0.194,0.756 0.753,0.751 l 0.596,-0.006 3.163,-0.028 0.597,-0.006 c 0.559,-0.006 0.671,-0.414 0.739,-0.766 h 0.013 l -10e-4,-0.06 -0.015,-1.649 -0.021,-2.1 c -0.075,-0.366 -0.175,-0.82 -0.767,-0.815 z"
   id="path831" />

				</g>

				<g
   id="g854">
					<path
   style="fill:#c7c8ca"
   d="m 133.826,142.642 -0.137,0.002 -0.732,0.006 -0.137,0.002 c -0.136,0.002 -0.158,0.108 -0.173,0.192 l 0.004,0.487 0.004,0.381 v 0.014 h 0.002 c 0.018,0.081 0.045,0.176 0.175,0.174 l 0.138,-0.002 0.732,-0.008 h 0.138 c 0.129,-10e-4 0.156,-0.097 0.171,-0.178 h 0.002 v -0.014 l -0.003,-0.382 -0.005,-0.485 c -0.019,-0.085 -0.042,-0.189 -0.179,-0.189 z"
   id="path832" />

					<path
   style="fill:#ebebec"
   d="m 133.759,142.702 -0.12,0.003 -0.632,0.005 -0.12,0.002 c -0.118,0.002 -0.136,0.094 -0.15,0.165 l 0.004,0.42 0.003,0.331 0.001,0.011 h 0.002 c 0.014,0.07 0.039,0.152 0.15,0.15 l 0.12,-0.002 0.633,-0.005 0.119,-0.002 c 0.111,-0.001 0.135,-0.082 0.148,-0.154 l 0.003,0.002 v -0.014 l -0.003,-0.328 -0.005,-0.422 c -0.015,-0.072 -0.036,-0.162 -0.153,-0.162 z"
   id="path833" />

					<path
   style="fill:#ebebec"
   d="m 133.672,142.784 h -0.096 l -0.504,0.005 h -0.095 c -0.094,0.002 -0.109,0.029 -0.12,0.049 l 0.001,0.122 0.002,0.095 -0.001,0.005 h 0.002 c 0.011,0.019 0.031,0.043 0.119,0.041 l 0.096,-0.002 0.504,-0.003 0.094,-0.002 c 0.089,0 0.108,-0.024 0.118,-0.046 h 0.003 v -0.002 l -0.002,-0.097 -0.002,-0.12 c -0.01,-0.019 -0.027,-0.046 -0.119,-0.045 z"
   id="path834" />

					<path
   style="fill:#828487"
   d="m 133.622,139.503 -0.269,0.003 -1.424,0.014 -0.269,0.002 c -0.06,0.002 -0.237,0.003 -0.297,0.003 l -0.268,0.003 -1.425,0.013 -0.269,0.003 c -0.266,0.003 -0.308,0.135 -0.339,0.241 l 0.006,0.612 0.005,0.477 v 0.017 h 0.005 c 0.033,0.103 0.086,0.22 0.338,0.217 l 0.27,-0.002 1.424,-0.013 0.269,-0.003 c 0.06,0 0.236,-0.003 0.297,-0.003 l 0.269,-0.002 1.424,-0.014 0.269,-0.002 c 0.252,-0.003 0.304,-0.122 0.334,-0.225 h 0.005 v -0.017 l -0.004,-0.479 -0.006,-0.612 c -0.034,-0.103 -0.079,-0.235 -0.345,-0.233 z"
   id="path835" />

					<path
   style="fill:#c7c8ca"
   d="m 132.343,142.656 h -0.137 l -0.732,0.008 -0.138,0.001 c -0.137,0.002 -0.158,0.108 -0.174,0.19 l 0.005,0.488 0.002,0.379 10e-4,0.016 h 0.003 c 0.018,0.081 0.045,0.174 0.174,0.174 l 0.138,-0.003 0.732,-0.006 0.137,-0.001 c 0.13,0 0.156,-0.095 0.171,-0.176 h 0.003 v -0.014 l -0.004,-0.38 -0.005,-0.487 c -0.016,-0.085 -0.039,-0.191 -0.176,-0.189 z"
   id="path836" />

					<path
   style="fill:#ebebec"
   d="m 132.276,142.718 h -0.119 l -0.633,0.006 h -0.12 c -0.119,0.002 -0.136,0.093 -0.151,0.168 l 0.004,0.418 0.003,0.331 v 0.011 h 0.003 c 0.014,0.07 0.039,0.152 0.15,0.149 h 0.12 l 0.632,-0.006 h 0.12 c 0.112,-10e-4 0.134,-0.084 0.147,-0.154 h 0.002 v -0.013 l -0.003,-0.33 -0.004,-0.42 c -0.012,-0.071 -0.033,-0.162 -0.151,-0.16 z"
   id="path837" />

					<path
   style="fill:#ebebec"
   d="m 132.189,142.797 -0.096,0.002 -0.503,0.005 -0.096,0.002 c -0.094,0 -0.109,0.027 -0.12,0.048 l 0.001,0.122 0.001,0.095 v 0.003 h 0.002 c 0.011,0.021 0.03,0.043 0.119,0.043 h 0.096 l 0.504,-0.006 h 0.095 c 0.089,-0.002 0.108,-0.025 0.118,-0.046 h 0.002 v -0.003 -0.095 l -0.002,-0.12 c -0.012,-0.025 -0.028,-0.05 -0.121,-0.05 z"
   id="path838" />

					<g
   id="g841">
						<path
   style="fill:#d9d9db"
   d="m 132.091,141.867 c 0.001,0.168 -0.136,0.309 -0.306,0.311 v 0 c -0.17,0.001 -0.31,-0.135 -0.311,-0.306 v 0 c -10e-4,-0.17 0.136,-0.309 0.306,-0.311 v 0 c 0.17,-0.002 0.31,0.134 0.311,0.306 z"
   id="path839" />

						<path
   style="fill:#d9d9db"
   d="m 132.943,141.857 c 0.002,0.171 -0.135,0.311 -0.305,0.312 v 0 c -0.171,0.002 -0.309,-0.136 -0.311,-0.306 v 0 c -0.002,-0.17 0.135,-0.309 0.305,-0.311 v 0 c 0.17,-0.001 0.31,0.137 0.311,0.305 z"
   id="path840" />

						<path
   style="fill:#d9d9db"
   d="m 133.796,141.849 c 0.002,0.171 -0.135,0.311 -0.305,0.312 v 0 c -0.17,0.002 -0.309,-0.135 -0.312,-0.306 v 0 c -0.002,-0.17 0.136,-0.309 0.305,-0.311 v 0 c 0.171,-0.001 0.311,0.135 0.312,0.305 z"
   id="path841" />

					</g>

					
						<rect
   x="129.105"
   y="141.431"
   transform="matrix(1,-0.0099,0.0099,1,-1.4014,1.2892)"
   style="fill:#d9d9db"
   width="1.774"
   height="2.5569999"
   id="rect841" />

					<g
   id="g852">
						<g
   id="g845">
							
								<rect
   x="129.23599"
   y="141.658"
   transform="matrix(1,-0.0099,0.0099,1,-1.3981,1.2885)"
   style="fill:#ebebec"
   width="0.465"
   height="0.46399999"
   id="rect842" />

							
								<rect
   x="129.752"
   y="141.653"
   transform="matrix(0.9999,-0.0103,0.0103,0.9999,-1.457,1.3486)"
   style="fill:#ebebec"
   width="0.46399999"
   height="0.465"
   id="rect843" />

							
								<rect
   x="130.267"
   y="141.64799"
   transform="matrix(0.9999,-0.0103,0.0103,0.9999,-1.4569,1.354)"
   style="fill:#959780"
   width="0.465"
   height="0.465"
   id="rect844" />

							<polygon
   style="fill:#8f99b4"
   points="129.709,142.667 129.244,142.672 129.24,142.206 129.703,142.202 "
   id="polygon844" />

							
								<rect
   x="129.757"
   y="142.19901"
   transform="matrix(0.9999,-0.0101,0.0101,0.9999,-1.4317,1.3199)"
   style="fill:#ebebec"
   width="0.465"
   height="0.465"
   id="rect845" />

							<polygon
   style="fill:#ebebec"
   points="130.739,142.656 130.274,142.662 130.27,142.196 130.735,142.193 "
   id="polygon845" />

						</g>

						<g
   id="g851">
							
								<rect
   x="129.246"
   y="142.75999"
   transform="matrix(0.9999,-0.0101,0.0101,0.9999,-1.4377,1.3151)"
   style="fill:#9199b0"
   width="0.465"
   height="0.465"
   id="rect846" />

							
								<rect
   x="129.76199"
   y="142.756"
   transform="matrix(0.9999,-0.0101,0.0101,0.9999,-1.438,1.3206)"
   style="fill:#ebebec"
   width="0.465"
   height="0.465"
   id="rect847" />

							
								<rect
   x="130.27699"
   y="142.75101"
   transform="matrix(0.9999,-0.0138,0.0138,0.9999,-1.9575,1.8116)"
   style="fill:#959780"
   width="0.465"
   height="0.465"
   id="rect848" />

							
								<rect
   x="129.25101"
   y="143.30701"
   transform="matrix(1,-0.0071,0.0071,1,-1.0167,0.9237)"
   style="fill:#ebebec"
   width="0.465"
   height="0.465"
   id="rect849" />

							
								<rect
   x="129.767"
   y="143.302"
   transform="matrix(1,-0.0099,0.0099,1,-1.4129,1.2924)"
   style="fill:#c3dde9"
   width="0.465"
   height="0.46399999"
   id="rect850" />

							
								<rect
   x="130.282"
   y="143.297"
   transform="matrix(0.9999,-0.0103,0.0103,0.9999,-1.4739,1.3542)"
   style="fill:#ebebec"
   width="0.465"
   height="0.465"
   id="rect851" />

						</g>

					</g>

					<g
   id="g853">
						<path
   style="fill:#a1cd3a"
   d="m 133.582,139.691 -0.204,0.003 -1.083,0.009 -0.204,0.003 c -0.046,0 -0.179,0.002 -0.226,0.002 l -0.204,0.001 -1.082,0.01 -0.204,0.003 c -0.202,0.002 -0.234,0.103 -0.258,0.182 l 0.005,0.465 0.003,0.365 v 0.013 h 0.004 c 0.025,0.078 0.066,0.167 0.257,0.165 l 0.204,-0.002 1.081,-0.011 0.204,-0.002 c 0.046,0 0.18,-0.002 0.225,-0.002 l 0.204,-0.002 1.081,-0.011 0.204,-0.002 c 0.191,-0.003 0.23,-0.092 0.254,-0.169 h 0.004 v -0.014 l -0.003,-0.363 -0.005,-0.464 c -0.021,-0.079 -0.055,-0.18 -0.257,-0.179 z"
   id="path852" />

						<path
   style="fill:#658723"
   d="m 130.382,140.93 c -0.18,0 -0.234,-0.081 -0.265,-0.171 -0.005,-10e-4 -0.008,-0.006 -0.008,-0.011 v -0.013 l -0.008,-0.829 0.001,-0.003 c 0.023,-0.078 0.058,-0.193 0.274,-0.197 l 1.489,-0.014 c 0.047,0 0.18,-0.002 0.226,-0.002 l 1.495,-0.014 c 0.213,0 0.249,0.114 0.272,0.19 0.001,0.002 0.001,0.003 0.001,0.005 l 0.009,0.842 c 0,0.003 -0.002,0.01 -0.005,0.011 -0.001,0.001 -0.002,0.003 -0.003,0.003 -0.019,0.064 -0.061,0.171 -0.266,0.173 l -1.489,0.013 c -0.046,10e-4 -0.18,0.003 -0.226,0.003 z m -0.237,-0.192 c 0.002,0 0.002,0.002 0.003,0.005 0.025,0.077 0.064,0.152 0.234,0.152 l 0.209,-0.002 1.286,-0.013 c 0.046,0 0.179,-0.001 0.225,-0.001 l 1.489,-0.014 c 0.176,-0.002 0.215,-0.079 0.238,-0.157 0.001,-0.003 0.002,-0.005 0.003,-0.006 v -0.003 l -0.008,-0.824 c -0.023,-0.073 -0.052,-0.165 -0.239,-0.165 l -0.208,0.003 -1.286,0.011 c -0.045,0 -0.179,0.002 -0.226,0.003 l -1.489,0.013 c -0.19,0.003 -0.219,0.094 -0.241,0.17 z"
   id="path853" />

					</g>

					<path
   style="fill:#6b6c6f"
   d="m 131.863,140.303 c 0.464,-0.014 0.932,-0.052 1.382,-0.178 0.155,-0.043 0.327,-0.09 0.48,-0.163 v -0.063 c -0.024,-0.074 -0.055,-0.168 -0.244,-0.168 l -3.001,0.029 c -0.189,0.002 -0.22,0.097 -0.242,0.173 l 0.001,0.082 c 0.438,0.328 1.107,0.304 1.624,0.288 z"
   id="path854" />

				</g>

				<g
   id="g857">
					<rect
   x="133.42799"
   y="140.265"
   style="fill:#6b6c6f"
   width="0.139"
   height="0.47400001"
   id="rect854" />

					<rect
   x="133.216"
   y="140.265"
   style="fill:#6b6c6f"
   width="0.139"
   height="0.47400001"
   id="rect855" />

					<rect
   x="133.005"
   y="140.265"
   style="fill:#6b6c6f"
   width="0.138"
   height="0.47400001"
   id="rect856" />

					<rect
   x="132.79401"
   y="140.265"
   style="fill:#6b6c6f"
   width="0.138"
   height="0.47400001"
   id="rect857" />

				</g>

				<g
   id="g861">
					<rect
   x="131.623"
   y="140.265"
   style="fill:#6b6c6f"
   width="0.139"
   height="0.47400001"
   id="rect858" />

					<rect
   x="131.41"
   y="140.265"
   style="fill:#6b6c6f"
   width="0.138"
   height="0.47400001"
   id="rect859" />

					<rect
   x="131.19901"
   y="140.265"
   style="fill:#6b6c6f"
   width="0.138"
   height="0.47400001"
   id="rect860" />

					<rect
   x="130.98599"
   y="140.265"
   style="fill:#6b6c6f"
   width="0.139"
   height="0.47400001"
   id="rect861" />

				</g>

				<g
   id="g865">
					<rect
   x="130.752"
   y="140.265"
   style="fill:#6b6c6f"
   width="0.089000002"
   height="0.47400001"
   id="rect862" />

					<rect
   x="130.617"
   y="140.265"
   style="fill:#6b6c6f"
   width="0.088"
   height="0.47400001"
   id="rect863" />

					<rect
   x="130.48199"
   y="140.265"
   style="fill:#6b6c6f"
   width="0.088"
   height="0.47400001"
   id="rect864" />

					<rect
   x="130.34801"
   y="140.265"
   style="fill:#6b6c6f"
   width="0.086999997"
   height="0.47400001"
   id="rect865" />

				</g>

			</g>

		</g>

		<g
   id="g875">
			<g
   id="g868">
				<path
   style="fill:#ffffff"
   d="m 172.963,121.433 -3.209,-14.787 c -0.537,-2.473 -2.975,-4.042 -5.448,-3.507 l -20.512,3.286 c -2.588,0.285 -4.453,2.616 -4.167,5.203 l 1.712,15.476 c 0.288,2.587 2.617,4.453 5.204,4.168 0.074,-0.01 0.147,-0.025 0.22,-0.036 v 0 l 0.016,-0.003 c 0.113,-0.018 0.226,-0.038 0.334,-0.064 l 22.342,-4.291 c 2.474,-0.536 4.044,-2.974 3.508,-5.445 z"
   id="path867" />

				<path
   style="fill:#9b9ea0"
   d="m 146.02,131.551 c -2.531,0 -4.649,-1.901 -4.928,-4.418 l -1.713,-15.477 c -0.301,-2.722 1.668,-5.18 4.388,-5.482 l 20.5,-3.283 c 0.326,-0.07 0.671,-0.108 1.015,-0.108 2.255,0 4.238,1.603 4.717,3.808 l 3.209,14.787 c 0.564,2.603 -1.095,5.179 -3.697,5.745 l -22.347,4.291 c -0.105,0.025 -0.223,0.046 -0.342,0.065 l -0.094,0.016 c -0.052,0.01 -0.103,0.019 -0.155,0.024 -0.188,0.021 -0.371,0.032 -0.553,0.032 z m 19.262,-28.266 c -0.307,0 -0.617,0.033 -0.922,0.1 l -20.525,3.286 c -2.459,0.273 -4.229,2.484 -3.958,4.93 l 1.713,15.477 c 0.269,2.428 2.445,4.221 4.927,3.944 0.043,-0.003 0.085,-0.013 0.127,-0.019 l 0.081,-0.014 c 0.123,-0.021 0.229,-0.04 0.333,-0.063 l 22.352,-4.293 c 2.327,-0.504 3.814,-2.814 3.308,-5.147 l -3.209,-14.787 c -0.428,-1.977 -2.206,-3.414 -4.227,-3.414 z"
   id="path868" />

			</g>

			<g
   id="g870">
				<path
   style="fill:#808794"
   d="m 171.821,121.324 -2.988,-13.549 c -0.5,-2.265 -2.772,-3.703 -5.074,-3.213 l -19.105,3.01 c -2.41,0.263 -4.148,2.397 -3.88,4.768 l 1.595,14.181 c 0.266,2.37 2.436,4.08 4.847,3.817 0.069,-0.008 0.137,-0.021 0.205,-0.032 v 0 l 0.016,-0.003 c 0.103,-0.017 0.208,-0.035 0.31,-0.059 l 20.809,-3.931 c 2.304,-0.49 3.765,-2.726 3.265,-4.989 z"
   id="path869" />

				<path
   style="fill:#b5b7b9"
   d="m 146.728,130.616 v 0 c -2.367,0 -4.347,-1.749 -4.607,-4.068 l -1.596,-14.18 c -0.135,-1.2 0.208,-2.384 0.968,-3.332 0.776,-0.968 1.89,-1.577 3.135,-1.714 l 19.093,-3.009 c 0.303,-0.063 0.626,-0.099 0.946,-0.099 2.108,0 3.963,1.474 4.41,3.505 l 2.989,13.549 c 0.253,1.148 0.04,2.328 -0.598,3.323 -0.652,1.015 -1.668,1.712 -2.859,1.966 l -20.814,3.933 c -0.097,0.024 -0.208,0.043 -0.319,0.061 l -0.089,0.016 c -0.047,0.008 -0.094,0.016 -0.142,0.021 -0.175,0.019 -0.347,0.028 -0.517,0.028 z m 17.939,-25.899 c -0.285,0 -0.574,0.03 -0.855,0.09 l -19.118,3.012 c -1.125,0.122 -2.118,0.666 -2.811,1.53 -0.675,0.845 -0.981,1.896 -0.861,2.963 l 1.595,14.182 c 0.232,2.065 1.999,3.622 4.11,3.622 h 0.001 c 0.152,0 0.306,-0.008 0.461,-0.025 0.037,-0.005 0.075,-0.01 0.113,-0.018 l 0.083,-0.013 c 0.112,-0.019 0.211,-0.036 0.306,-0.059 l 20.82,-3.933 c 1.053,-0.225 1.956,-0.846 2.535,-1.747 0.568,-0.88 0.755,-1.926 0.531,-2.946 l -2.989,-13.547 c -0.397,-1.803 -2.047,-3.111 -3.921,-3.111 z"
   id="path870" />

			</g>

			<g
   id="g874">
				<path
   style="fill:#808794"
   d="m 171.821,121.324 -2.988,-13.549 c -0.371,-1.685 -1.722,-2.91 -3.337,-3.226 1.079,0.556 1.91,1.561 2.188,2.826 l 2.989,13.549 c 0.499,2.264 -0.963,4.499 -3.265,4.99 l -20.808,3.931 c -0.102,0.024 -0.206,0.043 -0.311,0.057 l -0.015,0.005 c -0.069,0.009 -0.136,0.024 -0.206,0.032 -0.466,0.051 -0.922,0.025 -1.359,-0.062 0.745,0.384 1.609,0.56 2.508,0.461 0.069,-0.008 0.137,-0.021 0.205,-0.032 l 0.016,-0.003 c 0.103,-0.017 0.208,-0.035 0.31,-0.059 l 20.809,-3.931 c 2.303,-0.49 3.764,-2.726 3.264,-4.989 z"
   id="path871" />

				<path
   style="fill:#808794"
   d="m 146.067,129.939 c 0.07,-0.008 0.137,-0.022 0.206,-0.032 l 0.015,-0.005 c 0.105,-0.014 0.21,-0.033 0.311,-0.057 l 20.808,-3.931 c 2.302,-0.491 3.765,-2.727 3.265,-4.99 l -2.989,-13.549 c -0.278,-1.265 -1.11,-2.27 -2.188,-2.826 -0.558,-0.111 -1.146,-0.112 -1.737,0.013 l -19.105,3.01 c -2.41,0.263 -4.148,2.397 -3.88,4.768 l 1.595,14.181 c 0.167,1.487 1.083,2.712 2.339,3.356 0.438,0.087 0.894,0.113 1.36,0.062 z"
   id="path872" />

				<path
   style="fill:#808794"
   d="m 151.914,106.429 -2.601,0.409 c -2.783,2.811 -5.53,5.656 -8.192,8.577 l 0.199,1.772 c 3.453,-3.661 7.015,-7.218 10.594,-10.758 z"
   id="path873" />

				<path
   style="fill:#808794"
   d="m 169.211,114.291 -1.149,-5.21 c -3.322,3.811 -6.553,7.703 -9.957,11.442 -2.572,2.825 -5.091,5.696 -7.592,8.584 l 8.066,-1.525 c 3.593,-4.385 7.032,-8.907 10.632,-13.291 z"
   id="path874" />

			</g>

		</g>

		<g
   id="g883">
			<g
   id="g876">
				<path
   style="fill:#ffffff"
   d="m 79.212,121.433 3.208,-14.787 c 0.536,-2.473 2.976,-4.042 5.448,-3.507 l 20.512,3.286 c 2.588,0.285 4.454,2.616 4.166,5.203 l -1.712,15.476 c -0.286,2.587 -2.616,4.453 -5.203,4.168 -0.075,-0.01 -0.147,-0.025 -0.221,-0.036 v 0 l -0.017,-0.003 c -0.112,-0.018 -0.224,-0.038 -0.333,-0.064 l -22.343,-4.291 c -2.473,-0.536 -4.042,-2.974 -3.505,-5.445 z"
   id="path875" />

				<path
   style="fill:#9b9ea0"
   d="m 106.154,131.551 c -0.181,0 -0.365,-0.011 -0.552,-0.032 -0.054,-0.005 -0.107,-0.014 -0.16,-0.024 l -0.072,-0.013 c -0.135,-0.022 -0.254,-0.043 -0.369,-0.07 L 82.67,127.124 c -1.267,-0.276 -2.346,-1.024 -3.044,-2.108 -0.699,-1.086 -0.932,-2.378 -0.659,-3.638 l 3.209,-14.787 c 0.479,-2.205 2.462,-3.808 4.717,-3.808 0.344,0 0.69,0.038 1.029,0.111 l 20.498,3.281 c 2.709,0.3 4.677,2.758 4.376,5.48 l -1.713,15.477 c -0.279,2.519 -2.397,4.418 -4.929,4.419 z M 86.892,103.285 c -2.021,0 -3.799,1.436 -4.227,3.413 l -3.209,14.787 c -0.244,1.13 -0.035,2.287 0.59,3.261 0.625,0.972 1.592,1.642 2.723,1.888 l 22.336,4.288 c 0.115,0.027 0.22,0.046 0.327,0.063 l 0.104,0.019 c 0.039,0.007 0.079,0.014 0.121,0.018 2.48,0.279 4.658,-1.517 4.927,-3.944 l 1.713,-15.477 c 0.27,-2.446 -1.499,-4.657 -3.946,-4.928 l -20.524,-3.286 c -0.317,-0.068 -0.627,-0.102 -0.935,-0.102 z"
   id="path876" />

			</g>

			<g
   id="g878">
				<path
   style="fill:#808794"
   d="m 80.352,121.324 2.988,-13.549 c 0.5,-2.265 2.772,-3.703 5.074,-3.213 l 19.104,3.01 c 2.41,0.263 4.148,2.397 3.881,4.768 l -1.595,14.181 c -0.266,2.37 -2.436,4.08 -4.846,3.817 -0.069,-0.008 -0.136,-0.021 -0.205,-0.032 v 0 l -0.015,-0.003 c -0.105,-0.017 -0.21,-0.035 -0.312,-0.059 l -20.809,-3.931 c -2.302,-0.49 -3.764,-2.726 -3.265,-4.989 z"
   id="path877" />

				<path
   style="fill:#b5b7b9"
   d="m 105.446,130.616 c -0.171,0 -0.342,-0.01 -0.516,-0.029 -0.048,-0.005 -0.095,-0.013 -0.142,-0.021 l -0.073,-0.013 c -0.128,-0.021 -0.239,-0.04 -0.347,-0.065 l -20.797,-3.93 c -1.198,-0.255 -2.213,-0.954 -2.865,-1.967 -0.638,-0.994 -0.851,-2.175 -0.598,-3.323 l 2.989,-13.549 c 0.448,-2.031 2.303,-3.505 4.409,-3.505 0.322,0 0.645,0.035 0.961,0.102 l 19.091,3.007 c 1.234,0.135 2.347,0.743 3.124,1.712 0.759,0.948 1.102,2.132 0.967,3.332 l -1.595,14.18 c -0.261,2.321 -2.242,4.069 -4.608,4.069 z m -17.94,-25.899 c -1.874,0 -3.522,1.308 -3.92,3.112 l -2.989,13.549 c -0.224,1.018 -0.036,2.062 0.531,2.944 0.579,0.9 1.482,1.522 2.543,1.748 l 20.802,3.93 c 0.107,0.024 0.205,0.041 0.303,0.057 l 0.098,0.016 c 0.037,0.008 0.075,0.013 0.113,0.018 2.287,0.25 4.32,-1.382 4.569,-3.597 l 1.596,-14.182 c 0.12,-1.067 -0.186,-2.118 -0.861,-2.963 -0.693,-0.864 -1.686,-1.408 -2.798,-1.528 l -19.117,-3.012 c -0.297,-0.062 -0.584,-0.092 -0.87,-0.092 z"
   id="path878" />

			</g>

			<g
   id="g882">
				<path
   style="fill:#808794"
   d="m 80.352,121.324 2.988,-13.549 c 0.372,-1.685 1.723,-2.91 3.338,-3.226 -1.079,0.556 -1.909,1.561 -2.188,2.826 l -2.989,13.549 c -0.499,2.264 0.962,4.499 3.265,4.99 l 20.81,3.931 c 0.101,0.024 0.205,0.043 0.31,0.057 l 0.016,0.005 c 0.068,0.009 0.136,0.024 0.205,0.032 0.466,0.051 0.924,0.025 1.359,-0.062 -0.746,0.384 -1.609,0.56 -2.508,0.461 -0.069,-0.008 -0.136,-0.021 -0.205,-0.032 l -0.015,-0.003 c -0.105,-0.017 -0.21,-0.035 -0.312,-0.059 l -20.809,-3.931 c -2.302,-0.49 -3.764,-2.726 -3.265,-4.989 z"
   id="path879" />

				<path
   style="fill:#808794"
   d="m 106.106,129.939 c -0.07,-0.008 -0.137,-0.022 -0.205,-0.032 l -0.016,-0.005 c -0.105,-0.014 -0.208,-0.033 -0.31,-0.057 l -20.81,-3.931 c -2.303,-0.491 -3.763,-2.727 -3.265,-4.99 l 2.989,-13.549 c 0.279,-1.265 1.109,-2.27 2.188,-2.826 0.557,-0.111 1.145,-0.112 1.737,0.013 l 19.104,3.01 c 2.41,0.263 4.148,2.397 3.881,4.768 l -1.595,14.181 c -0.167,1.487 -1.084,2.712 -2.338,3.356 -0.436,0.087 -0.893,0.113 -1.36,0.062 z"
   id="path880" />

				<path
   style="fill:#808794"
   d="m 102.218,106.737 -4.153,-0.653 c -5.112,3.163 -10.262,6.265 -15.372,9.432 l -0.87,3.949 c 6.856,-4.159 13.889,-8.049 20.395,-12.728 z"
   id="path881" />

				<path
   style="fill:#808794"
   d="m 106.183,124.808 c 1.355,-0.881 2.726,-1.736 4.105,-2.579 l 0.62,-5.513 c -3.011,1.805 -6.021,3.611 -8.956,5.532 -2.671,1.75 -5.291,3.573 -7.893,5.421 l 6.326,1.195 c 1.921,-1.379 3.83,-2.777 5.798,-4.056 z"
   id="path882" />

			</g>

		</g>

		<g
   id="g885">
			<path
   style="fill:#c0c2c4"
   d="m 102.238,147.617 c -0.065,0 -0.131,-0.005 -0.198,-0.016 l -7.353,-1.121 c -0.713,-0.109 -1.203,-0.779 -1.095,-1.489 l 0.857,-5.616 c 0.107,-0.697 0.772,-1.205 1.489,-1.092 l 7.354,1.121 c 0.712,0.109 1.202,0.777 1.094,1.488 l -0.857,5.615 c -0.098,0.634 -0.651,1.11 -1.291,1.11 z m -6.499,-8.848 c -0.394,0 -0.735,0.293 -0.796,0.683 l -0.856,5.615 c -0.067,0.439 0.236,0.851 0.675,0.919 l 7.354,1.121 c 0.443,0.07 0.852,-0.244 0.918,-0.674 l 0.856,-5.616 c 0.067,-0.438 -0.235,-0.85 -0.674,-0.918 l -7.353,-1.121 c -0.043,-0.006 -0.083,-0.009 -0.124,-0.009 z"
   id="path883" />

			<path
   style="fill:#c0c2c4"
   d="m 98.557,146.525 c -0.037,0 -0.076,-0.003 -0.116,-0.01 l -3.578,-0.545 c -0.201,-0.03 -0.38,-0.138 -0.5,-0.303 -0.121,-0.165 -0.17,-0.366 -0.139,-0.568 l 0.416,-2.733 c 0.063,-0.407 0.449,-0.705 0.871,-0.639 l 3.577,0.545 c 0.416,0.065 0.703,0.455 0.64,0.87 l -0.418,2.733 c -0.056,0.371 -0.38,0.65 -0.753,0.65 z m -3.129,-4.302 c -0.164,0 -0.273,0.095 -0.292,0.22 l -0.416,2.733 c -0.01,0.068 0.006,0.138 0.048,0.195 0.042,0.057 0.104,0.094 0.173,0.105 l 3.618,0.549 c 0.128,0 0.24,-0.095 0.26,-0.224 l 0.417,-2.731 c 0.021,-0.143 -0.077,-0.279 -0.22,-0.301 l -3.577,-0.545 c -0.005,-10e-4 -0.008,-10e-4 -0.011,-10e-4 z"
   id="path884" />

			<path
   style="fill:#9b9da0"
   d="m 102.858,142.521 c -0.023,0.146 -0.159,0.244 -0.303,0.224 l -1.855,-0.284 c -0.145,-0.022 -0.245,-0.159 -0.223,-0.303 l 0.215,-1.415 c 0.022,-0.146 0.158,-0.246 0.303,-0.224 l 1.856,0.282 c 0.146,0.022 0.245,0.159 0.223,0.303 z"
   id="path885" />

		</g>

	</g>
  </g>
</svg>
