<?xml version="1.0" encoding="UTF-8" standalone="no"?>
<!-- Created with Inkscape (http://www.inkscape.org/) -->

<svg
   version="1.1"
   id="svg1"
   width="26.82093"
   height="26.818726"
   viewBox="0 0 26.820931 26.818726"
   sodipodi:docname="5280914_2767968.eps"
   xmlns:inkscape="http://www.inkscape.org/namespaces/inkscape"
   xmlns:sodipodi="http://sodipodi.sourceforge.net/DTD/sodipodi-0.dtd"
   xmlns="http://www.w3.org/2000/svg"
   xmlns:svg="http://www.w3.org/2000/svg">
  <defs
     id="defs1" />
  <sodipodi:namedview
     id="namedview1"
     pagecolor="#ffffff"
     bordercolor="#000000"
     borderopacity="0.25"
     inkscape:showpageshadow="2"
     inkscape:pageopacity="0.0"
     inkscape:pagecheckerboard="0"
     inkscape:deskcolor="#d1d1d1">
    <inkscape:page
       x="0"
       y="0"
       width="26.82093"
       height="26.818726"
       id="page2"
       margin="0"
       bleed="0" />
  </sodipodi:namedview>
  <g
     id="g1"
     inkscape:groupmode="layer"
     inkscape:label="1"
     transform="translate(-54.733451,-598.03893)">
    <g
       id="group-R5">
      <path
         id="path4"
         d="m 509.855,703.199 c 0,-14.488 -11.757,-26.25 -26.25,-26.25 -14.503,0 -26.25,11.762 -26.25,26.25 0,14.5 11.747,26.25 26.25,26.25 14.493,0 26.25,-11.75 26.25,-26.25"
         style="fill:#ffff00;fill-opacity:1;fill-rule:nonzero;stroke:none"
         transform="matrix(0.13333333,0,0,-0.13333333,0,666.66667)"
         inkscape:export-filename="../4649fc1/estrella1.svg"
         inkscape:export-xdpi="96"
         inkscape:export-ydpi="96" />
      <path
         id="path12"
         d="m 81.554386,611.45097 c -12.6308,0.42933 -12.9792,0.77867 -13.407867,13.40667 -0.433333,-12.628 -0.782266,-12.97734 -13.413066,-13.40667 12.6308,-0.43467 12.979733,-0.784 13.413066,-13.412 0.428667,12.628 0.777067,12.97733 13.407867,13.412"
         style="fill:#ff77b5;fill-opacity:1;fill-rule:nonzero;stroke:none;stroke-width:0.133333" />
      <path
         id="path13"
         d="m 340.5876,607.38002 c -7.608,0.25866 -7.81733,0.468 -8.076,8.07466 -0.26,-7.60666 -0.47067,-7.816 -8.07733,-8.07466 7.60666,-0.26134 7.81733,-0.472 8.07733,-8.07734 0.25867,7.60534 0.468,7.816 8.076,8.07734"
         style="fill:#68ffc0;fill-opacity:1;fill-rule:nonzero;stroke:none;stroke-width:0.133333" />
      <path
         id="path15"
         d="m 230.65882,598.05558 c -19.972,0.67866 -20.52266,1.2292 -21.19866,21.19746 -0.68667,-19.96826 -1.23734,-20.5188 -21.20534,-21.19746 19.968,-0.68534 20.51867,-1.23854 21.20534,-21.204 0.676,19.96546 1.22666,20.51866 21.19866,21.204"
         style="fill:#ffff00;fill-opacity:1;fill-rule:nonzero;stroke:none;stroke-width:0.133333"
         sodipodi:nodetypes="ccccc" />
      <path
         id="path18"
         d="m 297.45965,608.60607 c 0,3.38267 -2.744,6.124 -6.12533,6.124 -3.384,0 -6.124,-2.74133 -6.124,-6.124 0,-3.38266 2.74,-6.12533 6.124,-6.12533 3.38133,0 6.12533,2.74267 6.12533,6.12533"
         style="fill:#68ffc0;fill-opacity:1;fill-rule:nonzero;stroke:none;stroke-width:0.133333" />
      <path
         id="path24"
         d="m 113.73629,613.36581 c 0,1.54534 -1.25333,2.79867 -2.8,2.79867 -1.54667,0 -2.79867,-1.25333 -2.79867,-2.79867 0,-1.54533 1.252,-2.8 2.79867,-2.8 1.54667,0 2.8,1.25467 2.8,2.8"
         style="fill:#48d1ce;fill-opacity:1;fill-rule:nonzero;stroke:none;stroke-width:0.133333" />
      <path
         id="path27"
         d="m 1064.94,479.449 c 0,-22.82 -18.51,-41.328 -41.34,-41.328 -22.83,0 -41.334,18.508 -41.334,41.328 0,22.832 18.504,41.34 41.334,41.34 22.83,0 41.34,-18.508 41.34,-41.34"
         style="fill:#ff77b5;fill-opacity:1;fill-rule:nonzero;stroke:none"
         transform="matrix(0.13333333,0,0,-0.13333333,0,666.66667)" />
      <path
         id="path262"
         d="m 3956.36,810.992 c -117.45,0 -171.08,62.738 -259.55,126.61 -51.44,37.128 -119.44,64.338 -155,116.958 -35.14,52.03 -25.98,111.44 -41.25,174.25 -0.03,0.09 -0.05,0.18 -0.07,0.27 0.02,-0.09 0.04,-0.18 0.07,-0.27 15.27,-62.81 6.11,-122.22 41.25,-174.25 35.56,-52.62 103.56,-79.83 155,-116.958 88.47,-63.872 142.1,-126.61 259.55,-126.61 130.44,0 255.03,17.727 348.17,94.957 35.78,29.66 89.36,123.991 126.62,151.931 90.01,67.51 95.05,157.9 95.05,259.04 0,-101.14 -5.04,-191.53 -95.05,-259.04 -37.26,-27.94 -90.84,-122.271 -126.62,-151.931 -93.14,-77.23 -217.73,-94.957 -348.17,-94.957 m -455.92,418.288 c 0,0.01 0,0.01 0,0.02 0,-0.01 0,-0.01 0,-0.02 m 759.53,620.06 c -0.03,0.02 -0.05,0.03 -0.08,0.04 0.03,-0.01 0.05,-0.02 0.08,-0.04 m -0.26,0.15 c -0.03,0.01 -0.06,0.03 -0.09,0.05 0.03,-0.02 0.06,-0.04 0.09,-0.05 m -0.26,0.14 c -0.03,0.02 -0.06,0.03 -0.09,0.05 0.03,-0.01 0.06,-0.03 0.09,-0.05 m -0.27,0.15 c -0.03,0.02 -0.05,0.03 -0.08,0.04 0.03,-0.01 0.05,-0.02 0.08,-0.04 m -0.33,0.18 c -0.02,0.01 -0.04,0.03 -0.06,0.04 0.02,-0.02 0.04,-0.03 0.06,-0.04 m -0.26,0.14 c -0.02,0.02 -0.06,0.04 -0.09,0.06 0.03,-0.02 0.06,-0.04 0.09,-0.06 m -0.25,0.14 c -0.04,0.02 -0.07,0.04 -0.11,0.06 0.04,-0.02 0.08,-0.04 0.11,-0.06 m -0.26,0.14 c -0.03,0.02 -0.07,0.04 -0.1,0.06 0.03,-0.02 0.06,-0.04 0.1,-0.06 m -0.27,0.15 c -0.04,0.02 -0.08,0.04 -0.11,0.06 0.04,-0.02 0.07,-0.04 0.11,-0.06 m -0.33,0.18 c -0.04,0.02 -0.07,0.04 -0.11,0.06 0.04,-0.02 0.07,-0.04 0.11,-0.06 m -0.25,0.14 c -0.04,0.02 -0.08,0.04 -0.12,0.06 0.04,-0.02 0.08,-0.04 0.12,-0.06 m -0.26,0.13 c -0.03,0.02 -0.08,0.05 -0.12,0.07 0.04,-0.02 0.08,-0.05 0.12,-0.07 m -0.24,0.13 c -0.04,0.02 -0.09,0.05 -0.14,0.08 0.05,-0.03 0.09,-0.05 0.14,-0.08 m -0.24,0.13 c -0.09,0.05 -0.18,0.1 -0.27,0.14 0.09,-0.04 0.18,-0.09 0.27,-0.14 m -0.37,0.2 c -0.05,0.02 -0.09,0.05 -0.14,0.07 0.05,-0.02 0.09,-0.05 0.14,-0.07 m -0.26,0.14 c -0.04,0.02 -0.09,0.04 -0.13,0.06 0.04,-0.02 0.09,-0.04 0.13,-0.06 m -0.25,0.13 c -0.04,0.02 -0.09,0.04 -0.13,0.07 0.04,-0.03 0.09,-0.05 0.13,-0.07 m -0.26,0.13 c -0.04,0.03 -0.1,0.05 -0.14,0.08 0.04,-0.03 0.09,-0.05 0.14,-0.08 m -0.36,0.19 c -0.04,0.02 -0.08,0.04 -0.12,0.06 0.04,-0.02 0.08,-0.04 0.12,-0.06 m -0.24,0.13 c -0.05,0.02 -0.1,0.05 -0.14,0.07 0.04,-0.02 0.09,-0.05 0.14,-0.07 m -0.25,0.13 c -0.05,0.02 -0.09,0.04 -0.15,0.07 0.05,-0.02 0.1,-0.05 0.15,-0.07 m -0.25,0.13 c -0.05,0.02 -0.09,0.04 -0.14,0.07 0.04,-0.03 0.09,-0.05 0.14,-0.07 m -0.26,0.13 c -0.09,0.04 -0.17,0.09 -0.26,0.13 0.09,-0.04 0.18,-0.09 0.26,-0.13 m -0.36,0.18 c -0.05,0.03 -0.1,0.05 -0.14,0.08 0.05,-0.03 0.09,-0.05 0.14,-0.08 m -0.25,0.13 c -0.05,0.03 -0.09,0.05 -0.15,0.07 0.05,-0.02 0.1,-0.05 0.15,-0.07 m -0.24,0.13 c -0.05,0.02 -0.11,0.05 -0.16,0.07 0.06,-0.02 0.1,-0.05 0.16,-0.07 m -0.25,0.12 c -0.05,0.02 -0.1,0.05 -0.15,0.08 0.05,-0.03 0.1,-0.05 0.15,-0.08 m -0.19,0.09 c -0.12,0.06 -0.22,0.12 -0.34,0.18 0.11,-0.06 0.23,-0.12 0.34,-0.18 m -0.43,0.22 c -0.06,0.03 -0.1,0.05 -0.15,0.08 0.05,-0.03 0.09,-0.05 0.15,-0.08 m -0.25,0.13 c -0.05,0.02 -0.1,0.05 -0.16,0.07 0.06,-0.02 0.11,-0.05 0.16,-0.07 m -0.24,0.12 c -0.06,0.03 -0.11,0.05 -0.17,0.08 0.06,-0.03 0.12,-0.06 0.17,-0.08 m -0.21,0.1 c -0.2,0.1 -0.4,0.2 -0.6,0.3 0.2,-0.1 0.4,-0.2 0.6,-0.3 m -0.66,0.32 c -0.05,0.03 -0.12,0.06 -0.17,0.09 0.05,-0.03 0.12,-0.06 0.17,-0.09 m -0.24,0.12 c -0.06,0.03 -0.12,0.06 -0.18,0.09 0.06,-0.03 0.12,-0.06 0.18,-0.09 m -0.23,0.12 c -0.21,0.1 -0.42,0.2 -0.64,0.31 0.22,-0.11 0.43,-0.21 0.64,-0.31 m -0.64,0.31 c -0.07,0.03 -0.13,0.06 -0.2,0.09 0.07,-0.03 0.13,-0.06 0.2,-0.09 m -0.24,0.11 c -0.06,0.03 -0.13,0.07 -0.2,0.1 0.07,-0.03 0.14,-0.07 0.2,-0.1 m -0.23,0.12 c -0.07,0.03 -0.14,0.06 -0.2,0.09 0.06,-0.03 0.13,-0.06 0.2,-0.09 m -0.23,0.1 c -0.29,0.14 -0.57,0.27 -0.86,0.41 0.29,-0.13 0.58,-0.27 0.86,-0.41 m -0.89,0.43 c -0.07,0.03 -0.14,0.06 -0.21,0.09 0.07,-0.03 0.14,-0.06 0.21,-0.09 m -0.22,0.1 c -0.37,0.17 -0.75,0.35 -1.11,0.52 0.37,-0.17 0.74,-0.35 1.11,-0.52 m -1.13,0.53 c -42.32,19.53 -82.85,18.85 -133.04,20.86 v 0 c 50.18,-2 90.72,-1.33 133.04,-20.86"
         style="fill:#0b2364;fill-opacity:1;fill-rule:nonzero;stroke:none"
         transform="matrix(0.13333333,0,0,-0.13333333,0,666.66667)" />
      <path
         id="path306"
         d="m 2601.04,345.352 c -4.32,-4.43 -8.03,-9.313 -11.08,-14.532 l -4.65,2.41 c -0.67,2.969 -3.49,5.02 -6.59,4.661 -3.31,-0.391 -5.67,-3.391 -5.29,-6.7 0.39,-3.312 3.39,-5.671 6.7,-5.281 l 1.83,0.52 4.51,-2.348 c -2.51,-5.543 -4.32,-11.383 -5.39,-17.434 l 7.47,-1.316 c 2.3,13.059 8.5,25.066 17.92,34.727 l -5.43,5.293"
         style="fill:#f9fbfc;fill-opacity:1;fill-rule:nonzero;stroke:none"
         transform="matrix(0.13333333,0,0,-0.13333333,0,666.66667)" />
      <path
         id="path307"
         d="m 2655.92,368.371 c -1.71,0 -3.41,-0.062 -5.09,-0.172 l -0.74,6.262 c 1.87,1.5 2.96,3.891 2.65,6.449 -0.45,3.922 -4.02,6.742 -7.95,6.281 -3.93,-0.461 -6.74,-4.031 -6.27,-7.961 0.3,-2.539 1.89,-4.609 4.04,-5.64 l 0.73,-6.238 c -7.14,-1.161 -14.02,-3.321 -20.59,-6.454 l 3.27,-6.847 c 9.34,4.48 19.41,6.738 29.95,6.738 4.97,0 9.93,-0.527 14.75,-1.578 l 1.61,7.41 c -5.36,1.16 -10.85,1.75 -16.36,1.75"
         style="fill:#f9fbfc;fill-opacity:1;fill-rule:nonzero;stroke:none"
         transform="matrix(0.13333333,0,0,-0.13333333,0,666.66667)" />
      <path
         id="path308"
         d="m 2721.94,342.898 c 3.31,0.403 5.67,3.411 5.26,6.723 -0.4,3.309 -3.41,5.66 -6.72,5.25 -3.1,-0.379 -5.35,-3.031 -5.3,-6.082 l -4.16,-3.629 c -4.18,4.289 -8.9,8.121 -14.08,11.391 l -4.04,-6.41 c 11.35,-7.149 20.21,-17.27 25.64,-29.25 l 6.9,3.121 c -2.51,5.539 -5.67,10.718 -9.42,15.449 l 4.02,3.508 1.9,-0.071"
         style="fill:#f9fbfc;fill-opacity:1;fill-rule:nonzero;stroke:none"
         transform="matrix(0.13333333,0,0,-0.13333333,0,666.66667)" />
      <path
         id="path309"
         d="m 2650.45,266.289 c -3.86,-0.238 -7.75,-0.348 -11.57,-0.348 -8.8,0 -17.34,0.598 -24.79,1.789 -3.9,0.622 -8.46,1.551 -12.7,2.918 10.47,-18.609 30.69,-31.25 53.88,-31.25 28.56,0 52.63,19.161 59.5,45.032 -6.82,-4.489 -15.05,-8.25 -24.58,-11.219 -11.8,-3.68 -25.55,-6.07 -39.74,-6.922"
         style="fill:#f9fbfc;fill-opacity:1;fill-rule:nonzero;stroke:none"
         transform="matrix(0.13333333,0,0,-0.13333333,0,666.66667)" />
      <path
         id="path310"
         d="m 2681.7,297.141 c -7.5,0 -13.6,6.101 -13.6,13.601 0,7.5 6.1,13.61 13.6,13.61 7.5,0 13.6,-6.11 13.6,-13.61 0,-7.5 -6.1,-13.601 -13.6,-13.601 z m -47.37,-9.082 c -10.2,0 -18.5,8.3 -18.5,18.492 0,10.211 8.3,18.508 18.5,18.508 10.19,0 18.49,-8.297 18.49,-18.508 0,-10.192 -8.3,-18.492 -18.49,-18.492 z m 21.59,65.14 c -33.52,0 -60.79,-26.66 -60.79,-59.429 0,-4.25 0.46,-8.489 1.36,-12.61 6.74,-4.828 27.06,-8.898 53.48,-7.308 28.8,1.738 52.97,9.578 66.72,21.589 -0.05,1.938 -0.21,3.899 -0.45,5.809 -3.8,29.621 -29.74,51.949 -60.32,51.949"
         style="fill:#f9fbfc;fill-opacity:1;fill-rule:nonzero;stroke:none"
         transform="matrix(0.13333333,0,0,-0.13333333,0,666.66667)" />
      <path
         id="path311"
         d="m 2815.96,334.531 c -2.95,1.16 -8.06,3.098 -13.83,2.379 -5.51,-0.691 -8.44,-3.398 -8.44,-10.058 v -8.672 h 22.29 v -17.16 h -22.29 v -54.559 h -19.31 v 54.559 h -13.39 v 17.16 h 13.39 v 8.89 c 0,16.801 8.95,27.821 25.68,27.821 6.42,0 11.57,-1.211 15.9,-3.071 v -17.289"
         style="fill:#f9fbfc;fill-opacity:1;fill-rule:nonzero;stroke:none"
         transform="matrix(0.13333333,0,0,-0.13333333,0,666.66667)" />
      <path
         id="path312"
         d="m 2862.98,301.219 c -1.77,0.293 -3.58,0.461 -5.26,0.461 -8.95,0 -15.09,-5.481 -15.09,-16.129 v -39.09 h -19.33 v 71.719 h 18.73 v -7.84 c 4.51,6.73 11.4,9.769 20.21,9.769 4.14,0 8.47,-1.277 10.94,-3.367 l -10.2,-15.523"
         style="fill:#f9fbfc;fill-opacity:1;fill-rule:nonzero;stroke:none"
         transform="matrix(0.13333333,0,0,-0.13333333,0,666.66667)" />
      <path
         id="path313"
         d="m 2888.52,289.09 h 31.74 c -1.77,9.18 -7.32,14.371 -15.61,14.371 -9.1,0 -14.44,-5.481 -16.13,-14.371 z m 51.14,-6.66 c 0,-2.219 -0.16,-4.879 -0.37,-6.508 h -50.85 c 2.07,-10.363 9.32,-14.883 18.43,-14.883 6.22,0 12.94,2.52 18.13,6.891 l 11.33,-12.43 c -8.15,-7.48 -18.51,-10.891 -30.57,-10.891 -21.98,0 -37.23,14.961 -37.23,37.532 0,22.578 14.8,37.968 36.26,37.968 20.65,0 34.79,-15.32 34.87,-37.679"
         style="fill:#f9fbfc;fill-opacity:1;fill-rule:nonzero;stroke:none"
         transform="matrix(0.13333333,0,0,-0.13333333,0,666.66667)" />
      <path
         id="path314"
         d="m 2965.05,289.09 h 31.75 c -1.78,9.18 -7.34,14.371 -15.62,14.371 -9.1,0 -14.43,-5.481 -16.13,-14.371 z m 51.14,-6.66 c 0,-2.219 -0.15,-4.879 -0.37,-6.508 h -50.85 c 2.07,-10.363 9.33,-14.883 18.43,-14.883 6.22,0 12.96,2.52 18.13,6.891 l 11.33,-12.43 c -8.14,-7.48 -18.5,-10.891 -30.57,-10.891 -21.99,0 -37.23,14.961 -37.23,37.532 0,22.578 14.8,37.968 36.27,37.968 20.64,0 34.78,-15.32 34.86,-37.679"
         style="fill:#f9fbfc;fill-opacity:1;fill-rule:nonzero;stroke:none"
         transform="matrix(0.13333333,0,0,-0.13333333,0,666.66667)" />
      <path
         id="path315"
         d="m 3042.87,282.359 c 0,-11.32 7.48,-19.757 18.44,-19.757 11.4,0 18.49,8.808 18.49,19.757 0,10.95 -7.09,19.762 -18.49,19.762 -10.96,0 -18.44,-8.441 -18.44,-19.762 z m 56.78,0 c 0,-21.539 -14.95,-37.75 -34.72,-37.75 -9.62,0 -16.43,3.782 -21.09,9.332 v -37.082 h -19.25 V 318.18 h 18.88 v -7.918 c 4.66,5.847 11.54,9.847 21.38,9.847 19.85,0 34.8,-16.207 34.8,-37.75"
         style="fill:#f9fbfc;fill-opacity:1;fill-rule:nonzero;stroke:none"
         transform="matrix(0.13333333,0,0,-0.13333333,0,666.66667)" />
      <path
         id="path316"
         d="m 3128.09,246.461 h -19.32 v 71.719 h 19.32 z m 2.59,95.187 c 0,-6.957 -5.41,-12.289 -12.36,-12.289 -6.96,0 -12.28,5.332 -12.28,12.289 0,6.954 5.32,12.434 12.28,12.434 6.95,0 12.36,-5.48 12.36,-12.434"
         style="fill:#f9fbfc;fill-opacity:1;fill-rule:nonzero;stroke:none"
         transform="matrix(0.13333333,0,0,-0.13333333,0,666.66667)" />
      <path
         id="path317"
         d="m 3160.32,292.652 27.02,25.528 h 23.69 l -34.79,-33.75 35.01,-37.969 h -23.76 l -27.17,29.019 v -29.019 h -19.31 v 106.59 h 19.31 v -60.399"
         style="fill:#f9fbfc;fill-opacity:1;fill-rule:nonzero;stroke:none"
         transform="matrix(0.13333333,0,0,-0.13333333,0,666.66667)" />
      <path
         id="path318"
         d="m 1844.13,266.301 v 32.078 c -3.95,6.152 -12.45,11.422 -21.24,11.422 -14.21,0 -22.7,-11.711 -22.7,-27.391 0,-15.668 8.49,-27.238 22.7,-27.238 8.79,0 17.29,4.98 21.24,11.129 z m 0,-19.192 v 10.551 c -5.28,-7.18 -13.92,-12.308 -23.88,-12.308 -18.45,0 -31.49,14.058 -31.49,37.058 0,22.559 12.89,37.211 31.49,37.211 9.53,0 18.17,-4.691 23.88,-12.449 v 37.637 h 10.99 v -97.7 h -10.99"
         style="fill:#f9fbfc;fill-opacity:1;fill-rule:nonzero;stroke:none"
         transform="matrix(0.13333333,0,0,-0.13333333,0,666.66667)" />
      <path
         id="path319"
         d="m 1904.04,310.539 c -15.09,0 -22.56,-12.75 -23.15,-23.59 h 46.44 c -0.15,10.551 -7.18,23.59 -23.29,23.59 z m -34.72,-27.98 c 0,20.511 14.65,37.062 34.86,37.062 21.39,0 33.98,-16.699 33.98,-37.941 v -2.778 h -57.27 c 0.88,-13.332 10.26,-24.472 25.49,-24.472 8.06,0 16.26,3.23 21.82,8.941 l 5.28,-7.18 c -7.03,-7.031 -16.55,-10.839 -28.12,-10.839 -20.95,0 -36.04,15.089 -36.04,37.207"
         style="fill:#f9fbfc;fill-opacity:1;fill-rule:nonzero;stroke:none"
         transform="matrix(0.13333333,0,0,-0.13333333,0,666.66667)" />
      <path
         id="path320"
         d="m 1946.07,256.48 5.72,7.911 c 4.68,-5.422 13.62,-10.102 23.28,-10.102 10.85,0 16.71,5.121 16.71,12.16 0,17.133 -43.8,6.59 -43.8,32.813 0,10.976 9.52,20.359 26.36,20.359 12.02,0 20.51,-4.539 26.23,-10.25 l -5.14,-7.621 c -4.24,5.121 -12,8.93 -21.09,8.93 -9.66,0 -15.67,-4.828 -15.67,-11.129 0,-15.531 43.8,-5.27 43.8,-32.809 0,-11.871 -9.52,-21.39 -27.83,-21.39 -11.57,0 -21.39,3.519 -28.57,11.128"
         style="fill:#f9fbfc;fill-opacity:1;fill-rule:nonzero;stroke:none"
         transform="matrix(0.13333333,0,0,-0.13333333,0,666.66667)" />
      <path
         id="path321"
         d="m 2016.67,247.109 v 70.75 h 11 v -70.75 z m -1.89,88.18 c 0,4.102 3.36,7.473 7.31,7.473 4.11,0 7.48,-3.371 7.48,-7.473 0,-4.098 -3.37,-7.32 -7.48,-7.32 -3.95,0 -7.31,3.222 -7.31,7.32"
         style="fill:#f9fbfc;fill-opacity:1;fill-rule:nonzero;stroke:none"
         transform="matrix(0.13333333,0,0,-0.13333333,0,666.66667)" />
      <path
         id="path322"
         d="m 2097.09,267.469 v 30.91 c -3.81,6.152 -12.3,11.422 -21.09,11.422 -14.21,0 -22.7,-11.27 -22.7,-26.949 0,-15.532 8.49,-26.954 22.7,-26.954 8.79,0 17.28,5.422 21.09,11.571 z m -51.26,-38.52 5.56,8.199 c 5.86,-7.027 12.89,-9.668 22.99,-9.668 11.72,0 22.71,5.711 22.71,21.239 v 10.113 c -5.13,-7.184 -13.77,-12.602 -23.73,-12.602 -18.46,0 -31.49,13.77 -31.49,36.622 0,22.707 12.89,36.769 31.49,36.769 9.52,0 18.02,-4.691 23.73,-12.449 v 10.687 h 10.99 V 249.16 c 0,-23.441 -16.41,-30.762 -33.7,-30.762 -12.01,0 -20.21,2.352 -28.55,10.551"
         style="fill:#f9fbfc;fill-opacity:1;fill-rule:nonzero;stroke:none"
         transform="matrix(0.13333333,0,0,-0.13333333,0,666.66667)" />
      <path
         id="path323"
         d="m 2174.14,247.109 v 46.289 c 0,12.454 -6.3,16.403 -15.82,16.403 -8.65,0 -16.85,-5.27 -20.95,-10.981 v -51.711 h -10.99 v 70.75 h 10.99 v -10.25 c 4.98,5.86 14.65,12.012 25.19,12.012 14.8,0 22.56,-7.473 22.56,-22.851 v -49.661 h -10.98"
         style="fill:#f9fbfc;fill-opacity:1;fill-rule:nonzero;stroke:none"
         transform="matrix(0.13333333,0,0,-0.13333333,0,666.66667)" />
      <path
         id="path324"
         d="m 2234.04,310.539 c -15.08,0 -22.56,-12.75 -23.14,-23.59 h 46.43 c -0.14,10.551 -7.17,23.59 -23.29,23.59 z m -34.71,-27.98 c 0,20.511 14.64,37.062 34.86,37.062 21.39,0 33.98,-16.699 33.98,-37.941 v -2.778 h -57.27 c 0.88,-13.332 10.25,-24.472 25.49,-24.472 8.05,0 16.26,3.23 21.82,8.941 l 5.28,-7.18 c -7.03,-7.031 -16.56,-10.839 -28.13,-10.839 -20.94,0 -36.03,15.089 -36.03,37.207"
         style="fill:#f9fbfc;fill-opacity:1;fill-rule:nonzero;stroke:none"
         transform="matrix(0.13333333,0,0,-0.13333333,0,666.66667)" />
      <path
         id="path325"
         d="m 2333.51,266.301 v 32.078 c -3.96,6.152 -12.46,11.422 -21.24,11.422 -14.21,0 -22.71,-11.711 -22.71,-27.391 0,-15.668 8.5,-27.238 22.71,-27.238 8.78,0 17.28,4.98 21.24,11.129 z m 0,-19.192 v 10.551 c -5.28,-7.18 -13.92,-12.308 -23.89,-12.308 -18.45,0 -31.49,14.058 -31.49,37.058 0,22.559 12.89,37.211 31.49,37.211 9.53,0 18.17,-4.691 23.89,-12.449 v 37.637 h 10.98 v -97.7 h -10.98"
         style="fill:#f9fbfc;fill-opacity:1;fill-rule:nonzero;stroke:none"
         transform="matrix(0.13333333,0,0,-0.13333333,0,666.66667)" />
      <path
         id="path326"
         d="m 2429,255.172 c 14.36,0 22.86,11.57 22.86,27.238 0,15.68 -8.5,27.391 -22.86,27.391 -8.64,0 -17.28,-5.27 -21.09,-11.422 v -32.078 c 3.81,-6.149 12.45,-11.129 21.09,-11.129 z m -32.08,-8.063 v 97.7 h 10.99 v -37.637 c 5.71,7.758 14.21,12.449 23.88,12.449 18.45,0 31.49,-14.652 31.49,-37.211 0,-23 -13.04,-37.058 -31.49,-37.058 -9.96,0 -18.61,5.128 -23.88,12.308 v -10.551 h -10.99"
         style="fill:#f9fbfc;fill-opacity:1;fill-rule:nonzero;stroke:none"
         transform="matrix(0.13333333,0,0,-0.13333333,0,666.66667)" />
      <path
         id="path327"
         d="m 2475.29,229.379 c 1.61,-0.731 4.25,-1.168 6,-1.168 4.84,0 8.06,1.609 10.55,7.469 l 4.69,10.699 -29.59,71.48 h 11.86 l 23.59,-58.007 23.44,58.007 h 12 l -35.44,-85.109 c -4.25,-10.238 -11.43,-14.211 -20.8,-14.352 -2.35,0 -6.01,0.442 -8.06,1.032 l 1.76,9.949"
         style="fill:#f9fbfc;fill-opacity:1;fill-rule:nonzero;stroke:none"
         transform="matrix(0.13333333,0,0,-0.13333333,0,666.66667)" />
    </g>
  </g>
</svg>
