<?xml version="1.0" encoding="UTF-8"?>
<svg id="Capa_1" xmlns="http://www.w3.org/2000/svg" version="1.1" xmlns:xlink="http://www.w3.org/1999/xlink" viewBox="0 0 2122 2122">
  <!-- Generator: Adobe Illustrator 29.2.0, SVG Export Plug-In . SVG Version: 2.1.0 Build 108)  -->
  <defs>
    <style>
      .st0 {
        fill: #d3eaea;
      }

      .st1 {
        fill: #6d5da5;
      }

      .st2 {
        fill: #aca1cf;
      }

      .st3 {
        fill: #564789;
      }

      .st4 {
        fill: #a7d7d5;
      }

      .st5 {
        fill: #b67a2c;
      }

      .st6 {
        fill: #ec66a2;
      }

      .st7 {
        fill: #fbe14c;
      }

      .st8 {
        fill: #7597b4;
      }

      .st9 {
        fill: #716593;
      }

      .st10 {
        fill: #fab50a;
      }

      .st11 {
        fill: #ffe5aa;
      }

      .st12 {
        fill: #5a4d85;
      }

      .st13 {
        fill: #8f82bc;
      }

      .st14 {
        fill: #f4adcb;
      }
    </style>
  </defs>
  <path class="st7" d="M1243.8,1614.2c-3.1,18.1-14.5,34.1-27.8,47.7-35.5,36.1-87,58-139.8,61.6-52.8,3.6-106.4-10.8-150.1-38.3-32.9-20.7-60.9-49.7-73.2-84.6-.6-1.8-1-3.6-1.4-5.3-10.2-.8-20.4-1.5-30.5-2.4-21.8-2-43.3-4.4-64.6-6.9l-245.7,444c28.6-51.6,269.9-83.1,536.9-83.1s511.2,35,536.7,82.6l-236.3-441.4c-33.9,3.8-68.5,6.9-103.7,9.3.6,5.6.6,11.3-.4,16.9Z"/>
  <path class="st9" d="M1091.6,307.8c0-1.1-.1-2.3-.1-3.4-.7-25.4-1.3-50.7-2-76.1-.6-24.3-1.2-48.7-1.9-73-.1-4.2-.2-8.5-.2-12.9-6.1,1.4-12.5,2.3-19.1,2.3s-14.2-1-20.8-2.7c.1,3.4.2,6.8.3,10.2.6,25.4,1.2,50.7,1.8,76.1.6,24.3,1.2,48.7,1.7,73,0,2.2,0,4.5,0,6.8,9.3-.4,18.6-.7,27.9-.7,4.1,0,8.2.2,12.3.3Z"/>
  <path class="st10" d="M1639.9,1608.1c51.5,11.4,107.2,7.2,155.1-13.5,47.9-20.7,87.4-58.1,106.6-103.4,7.2-17,11.6-35.8,7.5-53.7-.2-.8-.4-1.5-.6-2.3-96.6,51-221.6,93.1-365.5,122.4,25,25.9,60.2,42.4,96.9,50.5Z"/>
  <path class="st10" d="M926.1,1685.2c43.7,27.5,97.3,41.9,150.1,38.3,52.8-3.6,104.2-25.5,139.8-61.6,13.4-13.6,24.7-29.6,27.8-47.7,1-5.7,1-11.3.4-16.9-10.3.7-20.7,1.4-31.1,2-49.7,2.8-100.5,4.3-152.1,4.3s-141.7-3-209.5-8.4c.4,1.8.8,3.5,1.4,5.3,12.4,34.9,40.3,63.8,73.2,84.6Z"/>
  <path class="st4" d="M858.5,827.9c4.1,27.9,10.1,56.4,5.7,84.2,119,22.4,242.3,27.6,362.6,14.3,79.7-8.8,158.6-26.4,234.3-50.7,36.2-11.6,71.8-24.9,106.4-40,19.6-8.5,39.3-16.8,58.6-25.7,8.6-4,16.6-7.8,24.8-10.8-16.7-231.7-196.2-422.5-434.3-476.4-5.2-1.2-10.4-2.3-15.6-3.3-35.4-7-72-10.9-109.5-11.6-4.1,0-8.2-.3-12.3-.3-9.4,0-18.7.3-27.9.7-10.6.5-21.1,1.2-31.5,2.2-71.9,82.6-123.2,180.3-148.9,283.3-19.1,76.6-24,156.3-12.4,234.2Z"/>
  <path class="st13" d="M1679.9,1345.6c-.1-2.1-.3-4.1-.5-6.2-5.8-65.4-28.9-128.4-56.2-189-39.1-86.6-89.2-147.8-165.5-207.1-2.1.7-4.2,1.3-6.2,1.9-160.2,48.8-333.3,67.1-501.1,48.5-39-4.3-77.7-10.2-116.1-17.8-11.4,15.4-24.7,30-37.3,44.5-92.4,106-165,231.1-189.3,364,197.9,34.9,402.6,44.5,602.8,32.6,6-.4,11.9-.7,17.9-1.1,3.9-.2,7.9-.5,11.8-.8,13.8-.9,27.6-2,41.4-3.2,6.6-.6,13.1-1.1,19.7-1.7,39-3.6,78-7.9,116.7-13.2,4.9-.7,9.8-1.4,14.7-2.1,4.9-.7,9.8-1.4,14.7-2.1,4.9-.7,9.8-1.5,14.7-2.2,9.8-1.5,19.6-3.1,29.4-4.8,9.7-1.6,19.4-3.3,29-5.1,5.5-1,11.1-2,16.6-3.1,12.7-2.4,25.3-4.9,37.9-7.5,2.1-.4,4.3-.9,6.4-1.3,4-.9,8.1-1.7,12.1-2.6,4.8-1,9.7-2.1,14.5-3.2l1.7-.4c4.3-.9,8.5-1.9,12.8-2.9,8.8-2,17.6-4.1,26.4-6.3,10.4-2.5,20.8-5.1,31.1-7.9"/>
  <path class="st0" d="M1257.3,512.9c52.5,38.8,107.7,77.2,142.4,130.3,14.9,22.7,25.9,48,45.7,67.3,41.3,40.5,114.9,26.5,106.6-34.5-8-59.1-44.8-119.6-83.3-166.2-24.3-29.5-52.7-56.1-84.5-78.7-19.8-14.1-41.3-26.9-65.3-33.4-24.1-6.4-51.2-5.9-72.9,5.6-21.7,11.5-36.5,35.1-31.9,57.8,4.4,21.9,24.4,37.9,43.3,51.9Z"/>
  <path class="st9" d="M2122,1180.8c0-6.5-.4-12.9-1.1-19.3-56.3,34.8-115.5,65.7-176.5,92.6-13,5.7-26.1,11.2-39.3,16.6-1.3.5-2.6,1.1-4,1.7-3,1.2-6,2.5-9,3.6-2.4,1-4.8,1.9-7.2,2.8-3.4,1.3-6.8,2.7-10.3,4-2.4.9-4.8,1.9-7.2,2.8-3.3,1.3-6.5,2.5-9.8,3.7-2.4.9-4.8,1.8-7.3,2.7-2.3.8-4.5,1.7-6.8,2.5-4.3,1.6-8.6,3.1-12.9,4.7-5.5,2-11,3.9-16.5,5.8l-.7.2c-5.3,1.8-10.6,3.6-15.9,5.4-5.5,1.9-11.1,3.7-16.7,5.5-6.6,2.1-13.2,4.2-19.8,6.2-2.6.8-5.2,1.6-7.8,2.3-4.8,1.5-9.6,2.9-14.4,4.3-2.8.8-5.5,1.7-8.3,2.5-2.4.7-4.8,1.4-7.3,2-6.3,1.8-12.5,3.6-18.8,5.3-2.6.7-5.1,1.5-7.7,2.2-5.7,1.5-11.3,3.1-17,4.5-10.3,2.7-20.7,5.4-31.1,7.9-8.8,2.1-17.6,4.3-26.4,6.3-4.3,1-8.5,2-12.8,2.9l-1.7.4c-4.8,1.1-9.6,2.1-14.5,3.2-4,.9-8.1,1.7-12.1,2.6-2.1.4-4.2.9-6.4,1.3-12.6,2.6-25.3,5.1-37.9,7.5-5.5,1-11.1,2.1-16.6,3.1-9.7,1.7-19.4,3.4-29,5.1-9.8,1.7-19.6,3.2-29.4,4.8-4.9.8-9.8,1.5-14.7,2.2-4.9.7-9.8,1.4-14.7,2.1-4.9.7-9.8,1.4-14.7,2.1-38.8,5.3-77.7,9.7-116.7,13.2-6.6.6-13.1,1.2-19.7,1.7-13.8,1.2-27.6,2.2-41.4,3.2-3.9.3-7.9.6-11.8.8-6,.4-11.9.8-17.9,1.1-200.2,11.9-404.9,2.3-602.8-32.6-5.3,29.1-8.3,58.6-8.7,88.4-.4,29.9,1.8,59.7,4.5,89.5,48.9,9.3,100.1,17.2,152.8,23.5,21.3,2.5,42.8,4.9,64.6,6.9,10.1.9,20.3,1.6,30.5,2.4,67.8,5.4,137.8,8.4,209.5,8.4s102.5-1.5,152.1-4.3c10.4-.6,20.8-1.3,31.1-2,35.2-2.4,69.8-5.5,103.7-9.3,67.9-7.6,133.1-17.8,194.8-30.3,0,0,.1,0,.2,0,144-29.3,268.9-71.3,365.5-122.4,0,0,0,0,0,0,134-70.8,213.5-158.9,213.5-254.4Z"/>
  <path class="st2" d="M1645.5,867.1c-19.6,10.5-39.4,20.2-59.9,29-41.6,17.9-84.3,33.8-127.8,47.2,0,0,0,0,0,0,76.3,59.2,126.4,120.5,165.5,207.1,27.3,60.6,50.5,123.6,56.2,189,.2,2.1.4,4.1.5,6.2,8.3-2.2,16.5-4.4,24.7-6.7,6.3-1.7,12.6-3.5,18.8-5.3,5.2-1.5,10.4-3,15.6-4.5,4.8-1.4,9.6-2.9,14.4-4.3,30.4-9.3,60.5-19.3,90.2-30.1,2.3-.8,4.6-1.7,6.8-2.5,8.1-3,16.2-6.1,24.2-9.2,3.4-1.3,6.8-2.7,10.3-4,6.8-2.7,13.5-5.4,20.2-8.1,13.2-5.4,26.3-10.9,39.3-16.6,61-26.9,120.1-57.8,176.5-92.6t0,0c0-.3,0-.6-.1-.9-.5-3.9-1-7.8-1.8-11.7-.3-1.5-.7-3.1-1-4.6-.6-2.6-1.1-5.3-1.8-7.9-.5-1.8-1.1-3.6-1.6-5.4-.7-2.3-1.3-4.7-2.1-7-.6-1.9-1.4-3.8-2.1-5.6-.8-2.2-1.6-4.4-2.5-6.7-.8-1.9-1.7-3.8-2.5-5.7-1-2.2-1.9-4.3-3-6.4-.9-1.9-2-3.9-3-5.8-1.1-2.1-2.2-4.2-3.4-6.3-1.1-1.9-2.3-3.9-3.4-5.8-1.2-2-2.5-4.1-3.8-6.1-1.2-1.9-2.6-3.9-3.9-5.8-1.4-2-2.7-4-4.2-6-1.4-1.9-2.8-3.8-4.3-5.8-1.5-2-3-3.9-4.6-5.9-1.5-1.9-3.1-3.8-4.7-5.7-1.6-1.9-3.3-3.9-5-5.8-1.7-1.9-3.4-3.8-5.1-5.7-1.7-1.9-3.5-3.8-5.4-5.7-1.8-1.9-3.7-3.8-5.5-5.6-1.9-1.9-3.8-3.7-5.7-5.6-2-1.9-3.9-3.7-5.9-5.6-2-1.8-4-3.6-6.1-5.5-2.1-1.8-4.2-3.7-6.3-5.5-2.1-1.8-4.3-3.6-6.5-5.4-2.2-1.8-4.4-3.6-6.7-5.4-2.2-1.8-4.6-3.5-6.9-5.3-2.3-1.8-4.7-3.6-7-5.3-2.4-1.8-4.8-3.5-7.3-5.2-2.4-1.7-4.9-3.5-7.4-5.2-2.5-1.7-5.1-3.4-7.7-5.2-2.5-1.7-5.1-3.4-7.7-5.1-2.7-1.7-5.4-3.4-8.1-5.1-2.6-1.6-5.2-3.3-7.9-4.9-2.9-1.7-5.8-3.5-8.8-5.2-2.6-1.6-5.2-3.1-7.9-4.7-3.2-1.8-6.5-3.7-9.8-5.5-2.5-1.4-5-2.8-7.5-4.2-5-2.7-10.1-5.3-15.2-8-2.4-1.2-4.8-2.4-7.2-3.6-4.7-2.4-9.4-4.7-14.3-7-2.4-1.1-4.8-2.3-7.3-3.4-4-1.9-8-3.8-12.1-5.7-2.7-1.2-5.4-2.4-8.1-3.6-3.9-1.8-7.9-3.5-11.9-5.2-2.8-1.2-5.7-2.4-8.5-3.6-4-1.7-8-3.4-12.1-5-2.9-1.2-5.8-2.3-8.8-3.5-4.1-1.6-8.3-3.3-12.5-4.9-3-1.1-6-2.3-9-3.4-4.3-1.6-8.5-3.2-12.9-4.8-3-1.1-6.1-2.2-9.1-3.2-4.4-1.6-8.9-3.1-13.4-4.7-3-1-6.1-2.1-9.2-3.1-4.6-1.5-9.2-3.1-13.9-4.6-3-1-6.1-1.9-9.1-2.9-4.8-1.5-9.7-3-14.6-4.5-3-.9-6-1.8-9-2.7-2.7-.8-5.5-1.6-8.2-2.4-12.2,11.2-27.7,18.8-43.3,27.1Z"/>
  <path class="st9" d="M1567.6,835.7c-34.7,15.1-70.2,28.4-106.4,40-75.8,24.3-154.6,41.9-234.3,50.7-120.3,13.3-243.6,8.1-362.6-14.3-.3,1.9-.7,3.9-1.1,5.8-2.4,10.8-6.3,21-11.4,30.8h0c-4.9,9.4-10.8,18.5-17.3,27.2,38.3,7.6,77.1,13.5,116.1,17.8,167.7,18.6,340.8.3,501.1-48.5,2.1-.6,4.2-1.3,6.2-1.9,0,0,0,0,0,0,43.5-13.5,86.2-29.4,127.8-47.2,20.5-8.8,40.3-18.5,59.9-29,15.6-8.3,31.1-16,43.3-27.1,0,0,0,0,0,0,5.1-4.7,9.7-10,13.4-16.2,8-13.3-1.9-31.2-19.2-30.9-11.9.2-22.1,2.7-32,6.3-8.2,3-16.2,6.8-24.8,10.8-19.3,9-39,17.2-58.6,25.7Z"/>
  <path class="st8" d="M629.5,843.2c40.2,16.3,81.5,30.5,123.5,42.6,36.5,10.5,73.6,19.2,111.2,26.3,4.5-27.8-1.6-56.2-5.7-84.2-11.5-77.9-6.7-157.6,12.4-234.2,25.7-103,77-200.8,148.9-283.3-272.3,25.8-488.1,227.1-511.4,478.8,20.9,7.2,39.9,17.8,59.8,27.2,20.1,9.5,40.5,18.4,61.3,26.8Z"/>
  <path class="st1" d="M797.1,1020.4c12.6-14.5,25.9-29.1,37.3-44.5-44.6-8.8-88.6-20-131.9-33.6-40.2-12.7-79.7-27.4-118-44.2-38.6-16.9-82.4-34.2-113.7-61.4-2.1-1.8-3.8-3.8-5.2-5.9-132.3,35.8-243.2,83.2-323.6,138.6C53.4,1030.3,2,1100.9,0,1176.3c185.1,102.5,392.5,170.3,607.7,208.2,24.3-133,96.8-258.1,189.3-364Z"/>
  <path class="st5" d="M125.8,1386c-.3.4-.5.7-.8,1.1-.6.8-1.2,1.6-1.7,2.4-.3.5-.5.9-.8,1.4-.5.7-.9,1.5-1.3,2.2-.3.5-.5,1-.7,1.6-.4.7-.7,1.5-1,2.2-.2.6-.4,1.1-.6,1.7-.3.8-.5,1.5-.8,2.3-.2.6-.3,1.2-.5,1.9-.2.8-.4,1.5-.5,2.3-.1.6-.2,1.3-.3,2-.1.8-.2,1.6-.3,2.4,0,.7,0,1.4-.1,2.1,0,.5,0,1,0,1.6,0,.6,0,1.2,0,1.8,1.4,36.7,19.6,71.6,45.1,99.9,33.7,37.5,81,64.9,132.8,74.9,3.4.7,6.9,1.2,10.3,1.7,1.1.2,2.3.3,3.4.4,2.3.3,4.7.6,7,.8,1.4.1,2.7.2,4.1.3,2.1.2,4.3.3,6.4.4,1.5,0,2.9.1,4.4.2,2.1,0,4.1.1,6.2.1.6,0,1.3,0,1.9,0s1.2,0,1.9,0c3.7,0,7.3-.1,10.9-.3.7,0,1.4,0,2,0,4.2-.3,8.4-.7,12.6-1.2,1-.1,2.1-.3,3.1-.4,3.4-.5,6.9-1,10.3-1.6.9-.2,1.8-.3,2.8-.5,4.1-.8,8.2-1.7,12.3-2.7.9-.2,1.7-.5,2.6-.7,3.4-.9,6.7-1.8,10-2.9,1-.3,2-.6,3-1,4-1.3,7.9-2.7,11.8-4.2.6-.2,1.1-.5,1.6-.7,3.4-1.4,6.7-2.8,10-4.4,1-.5,2-.9,3-1.4,3.8-1.8,7.5-3.7,11.1-5.8,13.9-8,27.1-17.9,35.9-30.4-147.6-38.3-269.8-90.8-354.3-152.7-1,1.1-1.9,2.2-2.8,3.3Z"/>
  <path class="st12" d="M607.8,1384.5C392.6,1346.6,185.2,1278.8,0,1176.3c0,1.5,0,3,0,4.5,0,73.1,46.6,141.9,128.6,201.9,84.5,61.9,206.8,114.4,354.3,152.7,38.5,10,78.8,19,120.6,27-2.6-29.8-4.9-59.6-4.5-89.5.4-29.8,3.4-59.3,8.7-88.4Z"/>
  <path class="st12" d="M584.4,898.1c38.4,16.8,77.8,31.5,118,44.2,43.3,13.7,87.3,24.8,131.9,33.6,6.5-8.8,12.5-17.8,17.3-27.2h0c5.1-9.8,9-20.1,11.4-30.9.4-1.9.8-3.9,1.1-5.8-37.6-7.1-74.7-15.8-111.2-26.3-42-12-83.2-26.3-123.5-42.6-20.7-8.4-41.1-17.3-61.3-26.8-19.9-9.4-38.8-20-59.8-27.2-2.1-.7-4.2-1.4-6.4-2.1-1.7-.5-3.3-.9-5-1.1-.6,0-1.1,0-1.6-.1-.9,0-1.9-.2-2.8-.2s-.2,0-.3,0c-2,0-3.9.2-5.7.6-.4,0-.9.2-1.3.4-1.4.4-2.8.8-4.1,1.4-.5.2-1,.4-1.5.7-1.4.7-2.8,1.5-4,2.4-.2.2-.5.3-.7.5-1.5,1.1-2.8,2.3-4.1,3.6-.3.3-.6.7-1,1.1-.9,1-1.8,2.1-2.6,3.3-.3.4-.6.9-.9,1.3-.9,1.4-1.7,2.9-2.4,4.5,0,0,0,.2-.1.3-.7,1.6-1.2,3.3-1.6,5.1-.1.5-.2,1-.3,1.4-.2,1.3-.4,2.6-.4,4,0,.3-.1.6-.1.9,0,.3,0,.5,0,.8,0,.5,0,1,0,1.5,0,.9.2,1.7.3,2.5,0,.5.2,1,.3,1.5.2.9.5,1.8.8,2.6.2.4.3.8.5,1.3.5,1.3,1.2,2.5,1.9,3.7,1.4,2.1,3.1,4.1,5.2,5.9,31.3,27.2,75.1,44.5,113.7,61.4Z"/>
  <path class="st10" d="M1087.4,142.5c33.8-7.9,58.9-36,58.9-69.5S1111.4,1.2,1068.3,1.2s-78,32.1-78,71.8,24.3,60.8,57.3,69.1c6.6,1.7,13.6,2.7,20.8,2.7s13-.8,19.1-2.3Z"/>
  <path class="st11" d="M1039.6,56.7c5.5-11.8,18.5-18.3,22.8-30,1.6-4.3-2.5-7.5-6.6-8-18.8-2.1-34.7,21.3-39.8,35.5-6.9,19.4-4.3,43.3,9.9,59.3,6.5,7.4,20.5-.6,17.2-9.2-6.2-16.6-11.5-30.3-3.4-47.5Z"/>
  <path class="st11" d="M1062,1696c20.2,8.8,48.6-1.8,67.9-9.4,25.5-10,48.4-24.9,68-42.9,10.6-9.6-6.6-25.1-16.2-14.9-16.7,17.8-35.9,31.6-59.6,40.9-19,7.5-43.5,6.8-60.2,17.1-3.3,2-4.2,7.3,0,9.1Z"/>
  <path class="st11" d="M1737.4,1587c24.4,9.5,61.9-14.1,81-26.8,20.9-13.9,54.1-37.9,56.3-63.3.5-6.1-7.7-9.7-13-6.9-12,6.5-17.7,17.6-26.8,27.1-10.2,10.7-21.9,20.3-34.6,28.4-12.7,8.1-26.5,15-40.9,20.2-11,4-17.2,4.7-24.3,13.2-1.9,2.3-.6,6.9,2.3,8Z"/>
  <path class="st3" d="M1168.3,1088.7c-51.7-42.2-131.3-39.2-185.8-2.6-75.1,50.5-85.9,158.4-26.5,223,50.1,54.5,135.8,66.6,200,25.5,33.7-21.6,58.4-55.7,64.7-96.2,8.2-53.1-7.7-113.1-52.4-149.7Z"/>
  <path class="st6" d="M1105.5,1093.2c-7-2.4-14-4-20.9-4.8-63.1-7.7-117,47-129,102.3-8.1,37.2.2,76,23.8,102.9,15.9,18.2,38.9,30.9,68.5,34.1,69.6,7.4,120.4-35.5,135.8-88.8,16.6-57.1-16.6-124.7-78.3-145.7Z"/>
  <path class="st14" d="M1035.6,1120.6c-17.8,8.7-31,25-40.6,40.9-8.6,14.3-19.6,34-15.9,50.6,1.5,6.9,11.5,6.9,15.2,1.8,9.5-13.1,11.3-30.9,20.1-45,8.8-14.3,21-25.8,31.1-39.2,4.4-5.8-4-12.1-10-9.2Z"/>
  <path class="st4" d="M1064.9,1499.4c-9,.4-16.7,6.7-16.7,15.3v2.3c0,8,7.7,15.7,16.7,15.3,9-.4,16.7-6.7,16.7-15.3v-2.3c0-8-7.7-15.7-16.7-15.3Z"/>
  <path class="st4" d="M760.4,1481c-.8-.8-1.7-1.5-2.5-2.3-6.2-5.7-17.5-6.1-23.6,0-6.1,6.1-6.6,15.6,0,21.7.8.8,1.7,1.5,2.5,2.3,6.2,5.7,17.5,6.1,23.6,0,6.1-6.1,6.6-15.6,0-21.7Z"/>
  <path class="st4" d="M456.5,1419.1c-6.7-5.6-17-6.1-23.6,0-.8.8-1.7,1.5-2.5,2.3-6.2,5.7-6.6,16.1,0,21.7,6.6,5.6,17,6.1,23.6,0,.8-.8,1.7-1.5,2.5-2.3,6.2-5.7,6.6-16.1,0-21.7Z"/>
  <path class="st4" d="M197.9,1333l-1.5,1.4c-15.2,14,8.4,35.6,23.6,21.7l1.5-1.4c15.2-14-8.4-35.6-23.6-21.7Z"/>
  <path class="st4" d="M1347.8,1474c-1.7.8-3.3,1.5-5,2.3-7.8,3.6-10.6,14.3-6,21,5.1,7.3,14.4,9.3,22.8,5.5,1.7-.8,3.3-1.5,5-2.3,7.8-3.6,10.6-14.3,6-21-5.1-7.3-14.4-9.3-22.8-5.5Z"/>
  <path class="st4" d="M1640.2,1423.8c-21.4,0-21.5,30.6,0,30.6s21.5-30.6,0-30.6Z"/>
  <path class="st4" d="M1894.2,1360.5h2.5c8.7,0,17.1-7,16.7-15.3-.4-8.3-7.3-15.3-16.7-15.3h-2.5c-8.7,0-17.1,7-16.7,15.3.4,8.3,7.3,15.3,16.7,15.3Z"/>
  <path class="st3" d="M406.3,942.1c-2.9-.2-5.9-.3-8.8-.3-20,0-40.7,4.4-63.1,13.4-59.8,24-108,72.3-129,129.1-10.2,27.7-11.4,51.4-3.5,72.7,13.6,36.7,47.9,57.8,94.1,57.8s49.4-5.7,71.4-15.7c54.1-24.4,97.4-67.3,118.8-117.8,16.7-39.4,14.7-75.8-5.6-102.4-16-21-43.8-34.7-74.4-36.8Z"/>
  <path class="st6" d="M403.9,967.3c-19.2-1.3-38.4,3.5-56.1,10.6-51.5,20.7-92.7,61.9-110.8,110.9-6.3,17-9.8,35.9-3.5,52.9,17.5,47.3,80.9,41.8,119.3,24.5,46-20.8,83.7-57.3,102.4-101.4,10.1-23.8,14.2-52.7-1.8-73.6-11.1-14.5-30.4-22.6-49.6-23.9Z"/>
  <path class="st14" d="M399.8,986c-28.2-10.1-67.6,13.8-88.1,30.2-27.3,21.8-45.2,48.7-56.8,79.9-3.9,10.6,14.3,17.8,19.8,7.7,13.9-25.9,34.9-48.6,60.1-65.7,20.4-13.9,52.8-21.6,68.7-39,4.4-4.8,2.5-10.9-3.8-13.1Z"/>
  <path class="st3" d="M1697.6,1060.8c21.4,50.4,64.7,93.3,118.8,117.8,22.1,10,48.1,15.7,71.4,15.7,46.2,0,80.5-21.1,94.1-57.8,7.9-21.2,6.7-45-3.5-72.7-21-56.8-69.2-105.1-129-129.1-22.4-9-43-13.4-63.1-13.4s-5.9.1-8.8.3c-30.5,2.1-58.4,15.8-74.4,36.8-20.3,26.6-22.3,62.9-5.6,102.4Z"/>
  <path class="st6" d="M1831.1,1145.7c38.4,17.3,101.8,22.8,119.3-24.5,6.3-17,2.8-35.9-3.5-52.9-18.1-48.9-59.3-90.2-110.8-110.9-17.7-7.1-36.9-11.9-56.1-10.6-19.2,1.3-38.5,9.4-49.6,23.9-16,20.9-11.9,49.8-1.8,73.6,18.7,44,56.4,80.6,102.4,101.4Z"/>
  <path class="st14" d="M1849,1017.7c25.2,17.1,46.2,39.8,60.1,65.7,5.4,10,23.8,3,19.8-7.7-11.6-31.3-29.5-58.1-56.8-80-20.7-16.5-59.9-40.3-88.1-30.2-6.2,2.2-8.1,8.3-3.8,13.1,15.9,17.4,48.5,25.3,68.7,39Z"/>
  <path class="st10" d="M1047.6,1946.7c-267,0-488.5,31.7-530.4,73.3-3.2,3.2-5.5,6.5-6.5,9.8,0,0,0,0,0,0-.5,1.5-.7,3-.7,4.5,0,48.4,240.7,87.6,537.6,87.6s537.6-39.2,537.6-87.6-.3-3.2-.8-4.8c0,0,0-.1,0-.2-1-2.9-2.8-5.8-5.5-8.6-40.1-41.9-262.6-74-531.2-74Z"/>
</svg>